<svg viewBox="0 0 330 200" xmlns="http://www.w3.org/2000/svg"><g><g><g><g><g><line x1="61.91500186920166" y1="177.89999961853027" x2="56.91500186920166" y2="177.89999961853027" style="visibility: inherit;" fill="rgb(0, 0, 0)" stroke="rgb(204, 204, 204)" stroke-width="1px"></line><line x1="61.91500186920166" y1="160.10999965667725" x2="56.91500186920166" y2="160.10999965667725" style="visibility: inherit;" fill="rgb(0, 0, 0)" stroke="rgb(204, 204, 204)" stroke-width="1px"></line><line x1="61.91500186920166" y1="142.31999969482422" x2="56.91500186920166" y2="142.31999969482422" style="visibility: inherit;" fill="rgb(0, 0, 0)" stroke="rgb(204, 204, 204)" stroke-width="1px"></line><line x1="61.91500186920166" y1="124.52999973297118" x2="56.91500186920166" y2="124.52999973297118" style="visibility: inherit;" fill="rgb(0, 0, 0)" stroke="rgb(204, 204, 204)" stroke-width="1px"></line><line x1="61.91500186920166" y1="106.73999977111816" x2="56.91500186920166" y2="106.73999977111816" style="visibility: inherit;" fill="rgb(0, 0, 0)" stroke="rgb(204, 204, 204)" stroke-width="1px"></line><line x1="61.91500186920166" y1="88.94999980926512" x2="56.91500186920166" y2="88.94999980926512" style="visibility: inherit;" fill="rgb(0, 0, 0)" stroke="rgb(204, 204, 204)" stroke-width="1px"></line><line x1="61.91500186920166" y1="71.1599998474121" x2="56.91500186920166" y2="71.1599998474121" style="visibility: inherit;" fill="rgb(0, 0, 0)" stroke="rgb(204, 204, 204)" stroke-width="1px"></line><line x1="61.91500186920166" y1="53.36999988555909" x2="56.91500186920166" y2="53.36999988555909" style="visibility: inherit;" fill="rgb(0, 0, 0)" stroke="rgb(204, 204, 204)" stroke-width="1px"></line><line x1="61.91500186920166" y1="35.57999992370605" x2="56.91500186920166" y2="35.57999992370605" style="visibility: inherit;" fill="rgb(0, 0, 0)" stroke="rgb(204, 204, 204)" stroke-width="1px"></line><line x1="61.91500186920166" y1="17.789999961853024" x2="56.91500186920166" y2="17.789999961853024" style="visibility: inherit;" fill="rgb(0, 0, 0)" stroke="rgb(204, 204, 204)" stroke-width="1px"></line><line x1="61.91500186920166" y1="0" x2="56.91500186920166" y2="0" style="visibility: inherit;" fill="rgb(0, 0, 0)" stroke="rgb(204, 204, 204)" stroke-width="1px"></line></g><g transform="translate(51.91500186920166, 0)"><text style="text-anchor: end; visibility: hidden; font-family: Roboto, sans-serif; font-size: 12px; font-weight: 200;" x="0" y="177.89999961853027" dx="0em" dy="0.3em" fill="rgb(50, 49, 63)" stroke="none" stroke-width="1px">-5e-3</text><text style="text-anchor: end; visibility: inherit; font-family: Roboto, sans-serif; font-size: 12px; font-weight: 200;" x="0" y="160.10999965667725" dx="0em" dy="0.3em" fill="rgb(50, 49, 63)" stroke="none" stroke-width="1px">0</text><text style="text-anchor: end; visibility: hidden; font-family: Roboto, sans-serif; font-size: 12px; font-weight: 200;" x="0" y="142.31999969482422" dx="0em" dy="0.3em" fill="rgb(50, 49, 63)" stroke="none" stroke-width="1px">5e-3</text><text style="text-anchor: end; visibility: inherit; font-family: Roboto, sans-serif; font-size: 12px; font-weight: 200;" x="0" y="124.52999973297118" dx="0em" dy="0.3em" fill="rgb(50, 49, 63)" stroke="none" stroke-width="1px">0.01</text><text style="text-anchor: end; visibility: hidden; font-family: Roboto, sans-serif; font-size: 12px; font-weight: 200;" x="0" y="106.73999977111816" dx="0em" dy="0.3em" fill="rgb(50, 49, 63)" stroke="none" stroke-width="1px">0.015</text><text style="text-anchor: end; visibility: inherit; font-family: Roboto, sans-serif; font-size: 12px; font-weight: 200;" x="0" y="88.94999980926512" dx="0em" dy="0.3em" fill="rgb(50, 49, 63)" stroke="none" stroke-width="1px">0.02</text><text style="text-anchor: end; visibility: hidden; font-family: Roboto, sans-serif; font-size: 12px; font-weight: 200;" x="0" y="71.1599998474121" dx="0em" dy="0.3em" fill="rgb(50, 49, 63)" stroke="none" stroke-width="1px">0.025</text><text style="text-anchor: end; visibility: inherit; font-family: Roboto, sans-serif; font-size: 12px; font-weight: 200;" x="0" y="53.36999988555909" dx="0em" dy="0.3em" fill="rgb(50, 49, 63)" stroke="none" stroke-width="1px">0.03</text><text style="text-anchor: end; visibility: hidden; font-family: Roboto, sans-serif; font-size: 12px; font-weight: 200;" x="0" y="35.57999992370605" dx="0em" dy="0.3em" fill="rgb(50, 49, 63)" stroke="none" stroke-width="1px">0.035</text><text style="text-anchor: end; visibility: inherit; font-family: Roboto, sans-serif; font-size: 12px; font-weight: 200;" x="0" y="17.789999961853024" dx="0em" dy="0.3em" fill="rgb(50, 49, 63)" stroke="none" stroke-width="1px">0.04</text><text style="text-anchor: end; visibility: hidden; font-family: Roboto, sans-serif; font-size: 12px; font-weight: 200;" x="0" y="0" dx="0em" dy="0.3em" fill="rgb(50, 49, 63)" stroke="none" stroke-width="1px">0.045</text></g><line x1="61.91500186920166" y1="0" x2="61.91500186920166" y2="177.89999961853027" fill="rgb(0, 0, 0)" stroke="rgb(204, 204, 204)" stroke-width="1px"></line></g></g><g transform="translate(61, 0)" clip-path="url(#clip_0)"><clipPath id="clip_0"><rect width="268" height="177"></rect></clipPath><g><g><g><line x1="0" y1="0" x2="0" y2="177.89999961853027" fill="rgb(0, 0, 0)" stroke="rgb(60, 60, 60)" stroke-width="1px" opacity="0.25"></line><line x1="19.148928437914165" y1="0" x2="19.148928437914165" y2="177.89999961853027" fill="rgb(0, 0, 0)" stroke="rgb(60, 60, 60)" stroke-width="1px" opacity="0.25"></line><line x1="38.29785687582833" y1="0" x2="38.29785687582833" y2="177.89999961853027" fill="rgb(0, 0, 0)" stroke="rgb(60, 60, 60)" stroke-width="1px" opacity="0.25"></line><line x1="57.446785313742495" y1="0" x2="57.446785313742495" y2="177.89999961853027" fill="rgb(0, 0, 0)" stroke="rgb(60, 60, 60)" stroke-width="1px" opacity="0.25"></line><line x1="76.59571375165666" y1="0" x2="76.59571375165666" y2="177.89999961853027" fill="rgb(0, 0, 0)" stroke="rgb(60, 60, 60)" stroke-width="1px" opacity="0.25"></line><line x1="95.74464218957084" y1="0" x2="95.74464218957084" y2="177.89999961853027" fill="rgb(0, 0, 0)" stroke="rgb(60, 60, 60)" stroke-width="1px" opacity="0.25"></line><line x1="114.89357062748499" y1="0" x2="114.89357062748499" y2="177.89999961853027" fill="rgb(0, 0, 0)" stroke="rgb(60, 60, 60)" stroke-width="1px" opacity="0.25"></line><line x1="134.04249906539917" y1="0" x2="134.04249906539917" y2="177.89999961853027" fill="rgb(0, 0, 0)" stroke="rgb(60, 60, 60)" stroke-width="1px" opacity="0.25"></line><line x1="153.19142750331332" y1="0" x2="153.19142750331332" y2="177.89999961853027" fill="rgb(0, 0, 0)" stroke="rgb(60, 60, 60)" stroke-width="1px" opacity="0.25"></line><line x1="172.34035594122753" y1="0" x2="172.34035594122753" y2="177.89999961853027" fill="rgb(0, 0, 0)" stroke="rgb(60, 60, 60)" stroke-width="1px" opacity="0.25"></line><line x1="191.48928437914168" y1="0" x2="191.48928437914168" y2="177.89999961853027" fill="rgb(0, 0, 0)" stroke="rgb(60, 60, 60)" stroke-width="1px" opacity="0.25"></line><line x1="210.63821281705583" y1="0" x2="210.63821281705583" y2="177.89999961853027" fill="rgb(0, 0, 0)" stroke="rgb(60, 60, 60)" stroke-width="1px" opacity="0.25"></line><line x1="229.78714125496998" y1="0" x2="229.78714125496998" y2="177.89999961853027" fill="rgb(0, 0, 0)" stroke="rgb(60, 60, 60)" stroke-width="1px" opacity="0.25"></line><line x1="248.9360696928842" y1="0" x2="248.9360696928842" y2="177.89999961853027" fill="rgb(0, 0, 0)" stroke="rgb(60, 60, 60)" stroke-width="1px" opacity="0.25"></line><line x1="268.08499813079834" y1="0" x2="268.08499813079834" y2="177.89999961853027" fill="rgb(0, 0, 0)" stroke="rgb(60, 60, 60)" stroke-width="1px" opacity="0.25"></line></g><g><line x1="0" y1="177.89999961853027" x2="268.08499813079834" y2="177.89999961853027" fill="rgb(0, 0, 0)" stroke="rgb(60, 60, 60)" stroke-width="1px" opacity="0.25"></line><line x1="0" y1="160.10999965667725" x2="268.08499813079834" y2="160.10999965667725" fill="rgb(0, 0, 0)" stroke="rgb(60, 60, 60)" stroke-width="1px" opacity="0.25"></line><line x1="0" y1="142.31999969482422" x2="268.08499813079834" y2="142.31999969482422" fill="rgb(0, 0, 0)" stroke="rgb(60, 60, 60)" stroke-width="1px" opacity="0.25"></line><line x1="0" y1="124.52999973297118" x2="268.08499813079834" y2="124.52999973297118" fill="rgb(0, 0, 0)" stroke="rgb(60, 60, 60)" stroke-width="1px" opacity="0.25"></line><line x1="0" y1="106.73999977111816" x2="268.08499813079834" y2="106.73999977111816" fill="rgb(0, 0, 0)" stroke="rgb(60, 60, 60)" stroke-width="1px" opacity="0.25"></line><line x1="0" y1="88.94999980926512" x2="268.08499813079834" y2="88.94999980926512" fill="rgb(0, 0, 0)" stroke="rgb(60, 60, 60)" stroke-width="1px" opacity="0.25"></line><line x1="0" y1="71.1599998474121" x2="268.08499813079834" y2="71.1599998474121" fill="rgb(0, 0, 0)" stroke="rgb(60, 60, 60)" stroke-width="1px" opacity="0.25"></line><line x1="0" y1="53.36999988555909" x2="268.08499813079834" y2="53.36999988555909" fill="rgb(0, 0, 0)" stroke="rgb(60, 60, 60)" stroke-width="1px" opacity="0.25"></line><line x1="0" y1="35.57999992370605" x2="268.08499813079834" y2="35.57999992370605" fill="rgb(0, 0, 0)" stroke="rgb(60, 60, 60)" stroke-width="1px" opacity="0.25"></line><line x1="0" y1="17.789999961853024" x2="268.08499813079834" y2="17.789999961853024" fill="rgb(0, 0, 0)" stroke="rgb(60, 60, 60)" stroke-width="1px" opacity="0.25"></line><line x1="0" y1="0" x2="268.08499813079834" y2="0" fill="rgb(0, 0, 0)" stroke="rgb(60, 60, 60)" stroke-width="1px" opacity="0.25"></line></g></g></g><g><g><line x1="0" y1="160.10999965667725" x2="268.08499813079834" y2="160.10999965667725" fill="rgb(0, 0, 0)" stroke="rgb(153, 153, 153)" stroke-width="1.5px"></line></g></g><g><g><line x1="19.148928437914165" y1="0" x2="19.148928437914165" y2="177.89999961853027" fill="rgb(0, 0, 0)" stroke="rgb(153, 153, 153)" stroke-width="1.5px"></line></g></g><g><g><g><g><g><path style="fill: none;" stroke="rgb(255, 112, 67)" stroke-width="2px" d="M19.627651648862024,110.30956284949683L19.72339629105159,110.01302469460678L20.106374859809875,108.95396323698483L20.202119501999448,108.26868900284173L20.489353428568158,107.30179867963784L20.58509807075773,106.57306708216478L20.872331997326445,105.57246545134966L20.96807663951601,104.79731357146099L21.063821281705582,104.14892331954891L21.44679985046387,103.00034339908575L22.308501630170003,100.60138264103152L22.595735556738717,98.59699582491562L22.978714125497,96.63703197464686L23.17020340987614,95.08282938809069L23.361692694255286,93.77134029328317L23.457437336444855,92.79500627610855L23.648926620823996,91.82974907630239L23.840415905203137,90.87109459396729L24.22339447396142,89.53678293229122L24.319139116150993,88.54645661583743L24.41488375834056,87.76249541701664L24.510628400530134,87.10234278727124L24.606373042719706,86.51647350346555L25.18084089585713,85.02624563483974L25.372330180236272,83.7525461664252L25.46807482242584,82.79854406005785L25.563819464615413,82.03635922437223L25.659564106804982,81.38926693746099L25.946798033373696,80.43165835246384L26.04254267556327,79.66731161711247L26.138287317752837,79.01891923974357L26.234031959942406,78.44009943413188L26.712755170890265,77.14389074111959L27.191478381838117,75.41724609300674L27.478712308406827,73.8119087195402L27.5744569505964,72.65892189203512L28.148924803733824,70.82842858315149L28.914881941250393,68.21186254822985L29.202115867819106,66.07257232575418L29.29786051000868,64.59921377593578L29.96807300533567,62.386713014165416L30.255306931904382,60.48986195149255L30.446796216283527,58.97218247610417L31.117008711610524,56.73308915884712L31.212753353800093,55.19984874959183L31.499987280368803,53.71055389763277L31.595731922558375,52.62719256738004L32.26594441788537,50.64869278806677L32.45743370226451,49.08202408224285L32.648922986643655,47.76245402049966L32.74466762883323,46.78092756433003L32.8404122710228,46.0022272715011L33.51062476634979,44.20652146372854L33.98934797729765,42.18018118525101L34.180837261676785,40.58480817990631L34.27658190386636,39.437799957570434L34.37232654605593,38.55981590687265L34.65956047262464,37.4636722190651L34.94679439919336,36.2366327489917L35.138283683572496,35.12084553052161L35.23402832576207,34.26158878030995L35.52126225233078,33.17668147279401L36.095730105468206,31.387035875339777L36.19147474765778,30.123464097737642L36.38296403203692,28.98575219291705L36.670197958605634,27.733777094468913L36.86168724298477,26.603023197140814L36.95743188517434,25.734786439614272L37.14892116955348,24.83427554683909L37.34041045393263,23.914405474747817L37.4361550961222,23.172699012363452L38.10636759144919,21.399189502858516L38.87232472896576,19.955514958896263L38.96806937115533,19.08931023251893L39.0638140133449,18.56958739669251L39.44679258210318,18.257753695196666L40.404239003998896,18.070653474299156L40.49998364618847,17.958393341760683L40.6914729305676,17.891037262237575L40.882962214946744,17.85062361452369L41.07445149932589,17.8263754258954L41.3616854258946,17.811826512718387L41.45743006808417,17.8030971648122L41.553174710273744,17.797859556068474L41.84040863684246,17.794716990822256L42.797855058738165,17.792831451674516L42.98934434311731,17.791700128185877L43.56381219625473,17.791021334092672L43.85104612282344,17.790614057636773L43.94679076501301,17.790369691763228L44.042535407202585,17.790223072239097L44.13828004939216,17.790135100524612L44.3297693337713,17.79008231749593L44.71274790252958,17.79005064767871L44.90423718690872,17.7900316457884L45.09572647128786,17.790020244654194L45.287215755667006,17.790013403973663L45.765938966614854,17.79000929956537L46.34040681975228,17.790006836920387L47.01061931507928,17.790005359333396L47.10636395726885,17.7900044727812L47.5850871682167,17.790003940849886L47.680831810406275,17.790003621691096L47.96806573697499,17.790003430195828L48.063810379164565,17.79000331529865L48.15955502135413,17.79000324636036L48.54253359011241,17.79000320499736L48.638278232301985,17.79000318017959L48.82976751668112,17.790003165288915L49.11700144324984,17.790003156354512L49.49998001200812,17.79000315099389L49.595724654197696,17.7900031477775L49.69146929638726,17.790003145847663L49.78721393857683,17.79000314468975L49.97870322295597,17.790003143995012L50.26593714952469,17.79000314357817L50.36168179171426,17.790003143328082L50.457426433903834,17.790003143178016L50.744660360472544,17.790003143087972L51.031894287041254,17.790003143033935L51.60636214017868,17.790003143001524L51.79785142455783,17.790003142982087L52.08508535112654,17.790003142970416L52.18082999331611,17.790003142963425L52.37231927769525,17.790003142959236L52.46806391988481,17.79000314295671L52.946787130832675,17.790003142955186L53.04253177302225,17.79000314295426L53.42551034178053,17.790003142953726L53.61699962615967,17.79000314295341L53.90423355272838,17.790003142953214L54.28721212148667,17.790003142953076L54.67019069024495,17.790003142953015L54.86167997462409,17.790003142952955L55.24465854338237,17.790003142952937L55.340403185571944,17.790003142952916L55.436147827761516,17.790003142952916L55.627637112140654,17.790003142952916L56.10636032308851,17.790003142952916L56.202104965278075,17.790003142952916L56.585083534036364,17.790003142952916L56.68082817622594,17.790003142952916L56.77657281841551,17.790003142952916L57.73401924031121,17.790003142952916L58.21274245125907,17.790003142952916L58.88295494658606,17.790003142952916L58.97869958877563,17.790003142952916L59.45742279972349,17.790003142952916L59.55316744191306,17.790003142952916L59.744656726292206,17.790003142952916L59.93614601067134,17.790003142952916L60.31912457942963,17.790003142952916L61.180826359135764,17.790003142952916L61.3723156435149,17.790003142952916L61.468060285704475,17.790003142952916L61.755294212273185,17.790003142952916L62.32976206541062,17.790003142952916L63.09571920292718,17.790003142952916L63.19146384511675,17.790003142952916L63.28720848730632,17.790003142952916L63.47869777168547,17.790003142952916L63.57444241387504,17.790003142952916L63.86167634044374,17.790003142952916L63.957420982633316,17.790003142952916L64.43614419358117,17.790003142952916L64.53188883577074,17.790003142952916L65.58507989985603,17.790003142952916L65.87231382642473,17.790003142952916L65.9680584686143,17.790003142952916L66.15954775299345,17.790003142952916L66.35103703737259,17.790003142952916L66.63827096394131,17.790003142952916L67.69146202802658,17.790003142952916L68.07444059678487,17.790003142952916L68.17018523897444,17.790003142952916L68.36167452335357,17.790003142952916L68.64890844992229,17.790003142952916L68.84039773430143,17.790003142952916L69.31912094524928,17.790003142952916L69.41486558743887,17.790003142952916L69.98933344057627,17.790003142952916L70.18082272495542,17.790003142952916L70.27656736714499,17.790003142952916L70.37231200933456,17.790003142952916L70.46805665152414,17.790003142952916L70.56380129371371,17.790003142952916L70.65954593590328,17.790003142952916L70.85103522028243,17.790003142952916L71.04252450466156,17.790003142952916L71.52124771560942,17.790003142952916L71.61699235779898,17.790003142952916L71.71273699998856,17.790003142952916L71.90422628436771,17.790003142952916L72.28720485312597,17.790003142952916L72.47869413750512,17.790003142952916L72.67018342188426,17.790003142952916L73.05316199064255,17.790003142952916L73.14890663283212,17.790003142952916L73.24465127502168,17.790003142952916L73.62762984377997,17.790003142952916L74.01060841253826,17.790003142952916L74.10635305472782,17.790003142952916L74.39358698129655,17.790003142952916L74.58507626567568,17.790003142952916L74.68082090786525,17.790003142952916L74.77656555005481,17.790003142952916L74.8723101922444,17.790003142952916L74.96805483443396,17.790003142952916L75.06379947662354,17.790003142952916L75.25528876100267,17.790003142952916L75.35103340319225,17.790003142952916L75.82975661414011,17.790003142952916L75.92550125632967,17.790003142952916L76.21273518289838,17.790003142952916L76.30847982508796,17.790003142952916L76.59571375165666,17.790003142952916L76.7872030360358,17.790003142952916L77.1701816047941,17.790003142952916L77.36167088917324,17.790003142952916L77.55316017355239,17.790003142952916L77.74464945793152,17.790003142952916L78.03188338450023,17.790003142952916L78.41486195325851,17.790003142952916L78.5106065954481,17.790003142952916L78.70209587982723,17.790003142952916L78.98932980639594,17.790003142952916L79.37230837515423,17.790003142952916L79.85103158610208,17.790003142952916L80.52124408142907,17.790003142952916L80.61698872361865,17.790003142952916L80.80847800799779,17.790003142952916L80.90422265018735,17.790003142952916L80.99996729237694,17.790003142952916L81.0957119345665,17.790003142952916L81.28720121894564,17.790003142952916L81.57443514551434,17.790003142952916L81.95741371427263,17.790003142952916L82.0531583564622,17.790003142952916L82.4361369252205,17.790003142952916L82.7233708517892,17.790003142952916L83.10634942054749,17.790003142952916L83.39358334711619,17.790003142952916L83.48932798930578,17.790003142952916L83.58507263149534,17.790003142952916L83.68081727368492,17.790003142952916L83.77656191587448,17.790003142952916L83.96805120025363,17.790003142952916L84.06379584244318,17.790003142952916L84.15954048463277,17.790003142952916L84.35102976901192,17.790003142952916L84.44677441120147,17.790003142952916L84.54251905339105,17.790003142952916L84.63826369558062,17.790003142952916L84.82975297995976,17.790003142952916L85.0212422643389,17.790003142952916L85.11698690652847,17.790003142952916L85.78719940185547,17.790003142952916L86.07443332842418,17.790003142952916L86.17017797061376,17.790003142952916L86.26592261280332,17.790003142952916L86.45741189718247,17.790003142952916L86.74464582375117,17.790003142952916L86.93613510813032,17.790003142952916L87.12762439250946,17.790003142952916L87.51060296126774,17.790003142952916L87.89358153002603,17.790003142952916L88.18081545659473,17.790003142952916L88.27656009878432,17.790003142952916L88.37230474097387,17.790003142952916L88.46804938316346,17.790003142952916L88.56379402535302,17.790003142952916L89.04251723630087,17.790003142952916L89.6169850894383,17.790003142952916L89.80847437381745,17.790003142952916L89.90421901600702,17.790003142952916L89.99996365819658,17.790003142952916L90.2871975847653,17.790003142952916L90.57443151133401,17.790003142952916L90.67017615352357,17.790003142952916L90.9574100800923,17.790003142952916L91.05315472228186,17.790003142952916L91.14889936447145,17.790003142952916L91.34038864885058,17.790003142952916L91.53187793322971,17.790003142952916L92.10634578636714,17.790003142952916L92.39357971293586,17.790003142952916L92.48932435512542,17.790003142952916L92.77655828169415,17.790003142952916L92.87230292388371,17.790003142952916L92.96804756607328,17.790003142952916L93.15953685045241,17.790003142952916L93.255281492642,17.790003142952916L93.82974934577942,17.790003142952916L94.2127279145377,17.790003142952916L94.30847255672728,17.790003142952916L94.49996184110641,17.790003142952916L94.69145112548556,17.790003142952916L94.8829404098647,17.790003142952916L94.97868505205426,17.790003142952916L95.07442969424385,17.790003142952916L95.1701743364334,17.790003142952916L95.26591897862299,17.790003142952916L95.5531529051917,17.790003142952916L95.74464218957084,17.790003142952916L95.93613147394998,17.790003142952916L96.22336540051869,17.790003142952916L96.41485468489783,17.790003142952916L96.5105993270874,17.790003142952916L96.60634396927698,17.790003142952916L96.98932253803525,17.790003142952916L97.1808118224144,17.790003142952916L97.27655646460397,17.790003142952916L97.4680457489831,17.790003142952916L97.75527967555183,17.790003142952916L98.1382582443101,17.790003142952916L98.42549217087883,17.790003142952916L98.71272609744753,17.790003142952916L98.8084707396371,17.790003142952916L98.99996002401625,17.790003142952916L99.19144930839539,17.790003142952916L99.38293859277452,17.790003142952916L99.86166180372238,17.790003142952916L100.14889573029109,17.790003142952916L100.24464037248067,17.790003142952916L100.34038501467023,17.790003142952916L100.62761894123894,17.790003142952916L101.39357607875552,17.790003142952916L101.48932072094509,17.790003142952916L101.58506536313466,17.790003142952916L101.77655464751379,17.790003142952916L102.15953321627208,17.790003142952916L102.35102250065123,17.790003142952916L102.44676714284078,17.790003142952916L102.82974571159907,17.790003142952916L103.02123499597822,17.790003142952916L103.11697963816778,17.790003142952916L103.40421356473651,17.790003142952916L103.59570284911565,17.790003142952916L103.78719213349478,17.790003142952916L104.0744260600635,17.790003142952916L104.26591534444263,17.790003142952916L104.36165998663222,17.790003142952916L104.55314927101135,17.790003142952916L104.64889391320092,17.790003142952916L104.93612783976963,17.790003142952916L105.22336176633836,17.790003142952916L105.31910640852792,17.790003142952916L105.98931890385491,17.790003142952916L106.0850635460445,17.790003142952916L106.18080818823405,17.790003142952916L106.27655283042363,17.790003142952916L106.46804211480277,17.790003142952916L106.56378675699234,17.790003142952916L106.75527604137147,17.790003142952916L106.85102068356106,17.790003142952916L106.94676532575062,17.790003142952916L107.23399925231934,17.790003142952916L107.32974389450891,17.790003142952916L107.42548853669847,17.790003142952916L107.52123317888805,17.790003142952916L107.7127224632672,17.790003142952916L108.2871903164046,17.790003142952916L108.38293495859419,17.790003142952916L108.6701688851629,17.790003142952916L109.3403813804899,17.790003142952916L109.6276153070586,17.790003142952916L110.2978278023856,17.790003142952916L110.39357244457518,17.790003142952916L110.48931708676474,17.790003142952916L110.68080637114389,17.790003142952916L110.77655101333346,17.790003142952916L110.87229565552303,17.790003142952916L111.15952958209174,17.790003142952916L111.25527422428131,17.790003142952916L111.44676350866045,17.790003142952916L111.6382527930396,17.790003142952916L111.73399743522916,17.790003142952916L112.11697600398745,17.790003142952916L112.21272064617702,17.790003142952916L112.5956992149353,17.790003142952916L112.69144385712488,17.790003142952916L112.78718849931444,17.790003142952916L112.88293314150403,17.790003142952916L113.17016706807273,17.790003142952916L113.2659117102623,17.790003142952916L113.36165635245187,17.790003142952916L113.64889027902058,17.790003142952916L113.74463492121015,17.790003142952916L114.51059205872673,17.790003142952916L114.89357062748499,17.790003142952916L115.08505991186414,17.790003142952916L115.27654919624328,17.790003142952916L115.37229383843287,17.790003142952916L115.65952776500157,17.790003142952916L115.75527240719114,17.790003142952916L115.94676169157029,17.790003142952916L116.04250633375986,17.790003142952916L116.13825097594942,17.790003142952916L116.23399561813899,17.790003142952916L116.52122954470771,17.790003142952916L117.28718668222427,17.790003142952916L117.47867596660342,17.790003142952916L117.67016525098256,17.790003142952916L117.86165453536171,17.790003142952916L117.95739917755127,17.790003142952916L118.05314381974084,17.790003142952916L118.24463310411998,17.790003142952916L118.43612238849913,17.790003142952916L118.53186703068869,17.790003142952916L118.62761167287826,17.790003142952916L118.91484559944698,17.790003142952916L119.10633488382612,17.790003142952916L119.77654737915312,17.790003142952916L119.87229202134267,17.790003142952916L120.1595259479114,17.790003142952916L120.35101523229055,17.790003142952916L120.92548308542797,17.790003142952916L121.02122772761753,17.790003142952916L121.21271701199667,17.790003142952916L121.40420629637582,17.790003142952916L121.78718486513411,17.790003142952916L122.1701634338924,17.790003142952916L122.36165271827153,17.790003142952916L122.55314200265066,17.790003142952916L122.84037592921939,17.790003142952916L122.93612057140895,17.790003142952916L123.03186521359852,17.790003142952916L123.1276098557881,17.790003142952916L123.70207770892551,17.790003142952916L123.79782235111509,17.790003142952916L124.37229020425251,17.790003142952916L124.56377948863165,17.790003142952916L124.7552687730108,17.790003142952916L124.85101341520037,17.790003142952916L124.94675805738994,17.790003142952916L125.80845983709608,17.790003142952916L125.99994912147521,17.790003142952916L126.28718304804394,17.790003142952916L126.6701616168022,17.790003142952916L126.86165090118135,17.790003142952916L126.95739554337094,17.790003142952916L127.34037411212921,17.790003142952916L127.43611875431878,17.790003142952916L127.62760803869793,17.790003142952916L127.72335268088749,17.790003142952916L127.81909732307707,17.790003142952916L128.1063312496458,17.790003142952916L128.20207589183534,17.790003142952916L129.15952231373106,17.790003142952916L129.3510115981102,17.790003142952916L129.44675624029978,17.790003142952916L129.7339901668685,17.790003142952916L129.82973480905804,17.790003142952916L129.92547945124764,17.790003142952916L130.21271337781633,17.790003142952916L130.3084580200059,17.790003142952916L130.40420266219547,17.790003142952916L131.84037229503903,17.790003142952916L132.12760622160775,17.790003142952916L132.3190955059869,17.790003142952916L132.41484014817647,17.790003142952916L132.6063294325556,17.790003142952916L132.70207407474518,17.790003142952916L132.98930800131387,17.790003142952916L133.27654192788262,17.790003142952916L133.37228657007216,17.790003142952916L133.46803121226174,17.790003142952916L133.5637758544513,17.790003142952916L133.75526513883045,17.790003142952916L133.9467544232096,17.790003142952916L134.13824370758874,17.790003142952916L134.3297329919679,17.790003142952916L134.42547763415746,17.790003142952916L134.61696691853658,17.790003142952916L134.80845620291575,17.790003142952916L134.99994548729487,17.790003142952916L135.09569012948444,17.790003142952916L135.19143477167404,17.790003142952916L135.2871794138636,17.790003142952916L135.38292405605316,17.790003142952916L136.34037047794888,17.790003142952916L136.72334904670714,17.790003142952916L137.10632761546543,17.790003142952916L137.202072257655,17.790003142952916L137.29781689984458,17.790003142952916L137.48930618422372,17.790003142952916L137.77654011079244,17.790003142952916L138.06377403736116,17.790003142952916L138.25526332174027,17.790003142952916L138.44675260611945,17.790003142952916L138.542497248309,17.790003142952916L138.73398653268814,17.790003142952916L139.11696510144643,17.790003142952916L139.21270974363597,17.790003142952916L139.30845438582557,17.790003142952916L139.49994367020471,17.790003142952916L139.59568831239426,17.790003142952916L139.882922238963,17.790003142952916L139.97866688115255,17.790003142952916L140.07441152334212,17.790003142952916L140.17015616553172,17.790003142952916L140.36164544991084,17.790003142952916L140.8403686608587,17.790003142952916L141.12760258742742,17.790003142952916L141.60632579837528,17.790003142952916L141.7978150827544,17.790003142952916L142.1807936515127,17.790003142952916L142.37228293589183,17.790003142952916L142.75526150465012,17.790003142952916L142.85100614683967,17.790003142952916L142.94675078902927,17.790003142952916L143.04249543121884,17.790003142952916L143.23398471559796,17.790003142952916L143.52121864216667,17.790003142952916L143.61696328435625,17.790003142952916L143.80845256873542,17.790003142952916L143.90419721092496,17.790003142952916L143.99994185311454,17.790003142952916L144.57440970625194,17.790003142952916L144.76589899063111,17.790003142952916L144.8616436328207,17.790003142952916L145.0531329171998,17.790003142952916L145.1488775593894,17.790003142952916L145.4361114859581,17.790003142952916L145.53185612814767,17.790003142952916L146.0105793390955,17.790003142952916L146.1063239812851,17.790003142952916L146.20206862347467,17.790003142952916L146.48930255004336,17.790003142952916L146.68079183442254,17.790003142952916L146.77653647661208,17.790003142952916L146.87228111880165,17.790003142952916L146.96802576099125,17.790003142952916L147.0637704031808,17.790003142952916L147.15951504537037,17.790003142952916L147.7339828985078,17.790003142952916L148.21270610945564,17.790003142952916L148.30845075164524,17.790003142952916L148.4041953938348,17.790003142952916L148.88291860478265,17.790003142952916L149.26589717354094,17.790003142952916L149.45738645792008,17.790003142952916L149.55313110010962,17.790003142952916L149.9361096688679,17.790003142952916L150.3190882376262,17.790003142952916L150.98930073295318,17.790003142952916L151.18079001733236,17.790003142952916L151.46802394390104,17.790003142952916L151.65951322828022,17.790003142952916L151.75525787046976,17.790003142952916L152.0424917970385,17.790003142952916L152.13823643922805,17.790003142952916L152.3297257236072,17.790003142952916L152.42547036579677,17.790003142952916L152.7127042923655,17.790003142952916L154.3403632095882,17.790003142952916L154.43610785177776,17.790003142952916L154.53185249396734,17.790003142952916L154.62759713615688,17.790003142952916L155.01057570491517,17.790003142952916L155.2978096314839,17.790003142952916L155.39355427367346,17.790003142952916L155.68078820024218,17.790003142952916L155.77653284243175,17.790003142952916L155.87227748462132,17.790003142952916L156.2552560533796,17.790003142952916L156.35100069556916,17.790003142952916L156.44674533775873,17.790003142952916L156.6382346221379,17.790003142952916L156.82972390651702,17.790003142952916L157.0212131908962,17.790003142952916L157.2127024752753,17.790003142952916L157.7871703284127,17.790003142952916L157.9786596127919,17.790003142952916L158.45738282373975,17.790003142952916L158.5531274659293,17.790003142952916L159.41482924563545,17.790003142952916L159.51057388782502,17.790003142952916L160.56376495191031,17.790003142952916L160.94674352066858,17.790003142952916L161.04248816285815,17.790003142952916L161.32972208942684,17.790003142952916L161.4254667316164,17.790003142952916L161.71270065818513,17.790003142952916L161.9041899425643,17.790003142952916L161.99993458475387,17.790003142952916L162.09567922694342,17.790003142952916L162.7658917222704,17.790003142952916L162.86163636446,17.790003142952916L162.95738100664957,17.790003142952916L163.05312564883914,17.790003142952916L163.34035957540786,17.790003142952916L163.53184885978698,17.790003142952916L163.62759350197655,17.790003142952916L163.72333814416615,17.790003142952916L163.8190827863557,17.790003142952916L164.29780599730356,17.790003142952916L164.4892952816827,17.790003142952916L164.96801849263053,17.790003142952916L165.06376313482014,17.790003142952916L165.35099706138882,17.790003142952916L166.02120955671583,17.790003142952916L166.21269884109498,17.790003142952916L167.17014526299067,17.790003142952916L167.36163454736985,17.790003142952916L167.4573791895594,17.790003142952916L167.64886847393853,17.790003142952916L167.74461311612808,17.790003142952916L167.93610240050725,17.790003142952916L168.03184704269682,17.790003142952916L168.60631489583423,17.790003142952916L168.70205953802383,17.790003142952916L169.27652739116124,17.790003142952916L169.3722720333508,17.790003142952916L170.23397381305693,17.790003142952916L170.61695238181522,17.790003142952916L170.80844166619437,17.790003142952916L171.19142023495266,17.790003142952916L171.76588808809007,17.790003142952916L172.05312201465878,17.790003142952916L172.24461129903793,17.790003142952916L172.53184522560665,17.790003142952916L172.72333450998576,17.790003142952916L172.81907915217536,17.790003142952916L173.20205772093362,17.790003142952916L173.29780236312322,17.790003142952916L173.48929164750234,17.790003142952916L173.5850362896919,17.790003142952916L173.7765255740711,17.790003142952916L174.06375950063978,17.790003142952916L174.15950414282935,17.790003142952916L174.25524878501892,17.790003142952916L174.6382273537772,17.790003142952916L174.82971663815636,17.790003142952916L174.9254612803459,17.790003142952916L175.02120592253547,17.790003142952916L175.21269520691465,17.790003142952916L175.40418449129376,17.790003142952916L175.5956737756729,17.790003142952916L175.88290770224162,17.790003142952916L176.17014162881034,17.790003142952916L176.2658862709999,17.790003142952916L176.36163091318946,17.790003142952916L176.64886483975818,17.790003142952916L176.84035412413735,17.790003142952916L176.93609876632692,17.790003142952916L177.2233326928956,17.790003142952916L177.3190773350852,17.790003142952916L177.6063112616539,17.790003142952916L177.9892898304122,17.790003142952916L178.08503447260173,17.790003142952916L178.1807791147913,17.790003142952916L178.8509916101183,17.790003142952916L179.04248089449746,17.790003142952916L179.13822553668706,17.790003142952916L179.2339701788766,17.790003142952916L179.5212041054453,17.790003142952916L179.6169487476349,17.790003142952916L179.80843803201404,17.790003142952916L180.19141660077233,17.790003142952916L180.28716124296187,17.790003142952916L180.38290588515144,17.790003142952916L180.67013981172016,17.790003142952916L181.05311838047845,17.790003142952916L181.14886302266802,17.790003142952916L181.34035230704714,17.790003142952916L181.43609694923674,17.790003142952916L181.5318415914263,17.790003142952916L181.6275862336159,17.790003142952916L181.81907551799503,17.790003142952916L182.10630944456372,17.790003142952916L182.2020540867533,17.790003142952916L182.2977987289429,17.790003142952916L182.39354337113244,17.790003142952916L182.77652193989073,17.790003142952916L182.8722665820803,17.790003142952916L183.35098979302816,17.790003142952916L183.54247907740728,17.790003142952916L183.63822371959688,17.790003142952916L183.73396836178645,17.790003142952916L184.11694693054474,17.790003142952916L184.40418085711343,17.790003142952916L184.59567014149258,17.790003142952916L184.88290406806126,17.790003142952916L184.97864871025084,17.790003142952916L185.07439335244044,17.790003142952916L185.17013799463,17.790003142952916L185.26588263681955,17.790003142952916L185.45737192119873,17.790003142952916L185.64886120557784,17.790003142952916L185.93609513214656,17.790003142952916L186.03183977433613,17.790003142952916L186.22332905871528,17.790003142952916L186.31907370090482,17.790003142952916L186.41481834309442,17.790003142952916L186.7020522696631,17.790003142952916L186.8935415540423,17.790003142952916L186.98928619623183,17.790003142952916L187.0850308384214,17.790003142952916L187.18077548061098,17.790003142952916L187.85098797593798,17.790003142952916L187.94673261812756,17.790003142952916L188.23396654469627,17.790003142952916L188.71268975564413,17.790003142952916L189.09566832440242,17.790003142952916L189.67013617753983,17.790003142952916L189.7658808197294,17.790003142952916L189.95737010410852,17.790003142952916L190.3403486728668,17.790003142952916L190.4360933150564,17.790003142952916L190.53183795724598,17.790003142952916L190.7233272416251,17.790003142952916L190.81907188381467,17.790003142952916L190.91481652600424,17.790003142952916L191.2977950947625,17.790003142952916L191.6807736635208,17.790003142952916L191.87226294789997,17.790003142952916L191.96800759008954,17.790003142952916L192.7339647276061,17.790003142952916L192.82970936979567,17.790003142952916L193.11694329636435,17.790003142952916L193.40417722293307,17.790003142952916L193.78715579169136,17.790003142952916L193.9786450760705,17.790003142952916L194.3616236448288,17.790003142952916L194.84034685577663,17.790003142952916L194.9360914979662,17.790003142952916L195.3190700667245,17.790003142952916L195.4148147089141,17.790003142952916L195.70204863548278,17.790003142952916L195.79779327767235,17.790003142952916L195.89353791986196,17.790003142952916L196.18077184643064,17.790003142952916L196.46800577299936,17.790003142952916L196.56375041518893,17.790003142952916L196.75523969956805,17.790003142952916L196.94672898394722,17.790003142952916L197.04247362613677,17.790003142952916L197.13821826832634,17.790003142952916L197.80843076365335,17.790003142952916L197.9999200480325,17.790003142952916L198.09566469022204,17.790003142952916L198.6701325433595,17.790003142952916L198.76587718554904,17.790003142952916L198.86162182773862,17.790003142952916L198.9573664699282,17.790003142952916L199.0531111121178,17.790003142952916L199.2446003964969,17.790003142952916L199.53183432306562,17.790003142952916L200.2020468183926,17.790003142952916L200.29779146058218,17.790003142952916L200.39353610277178,17.790003142952916L201.25523788247787,17.790003142952916L201.54247180904662,17.790003142952916L201.63821645123616,17.790003142952916L202.02119501999445,17.790003142952916L202.11693966218402,17.790003142952916L202.21268430437362,17.790003142952916L202.3084289465632,17.790003142952916L202.5956628731319,17.790003142952916L202.69140751532146,17.790003142952916L202.78715215751103,17.790003142952916L202.8828967997006,17.790003142952916L203.2658753684589,17.790003142952916L203.36162001064847,17.790003142952916L203.457364652838,17.790003142952916L203.74459857940673,17.790003142952916L203.93608786378587,17.790003142952916L204.12757714816502,17.790003142952916L204.31906643254416,17.790003142952916L204.41481107473373,17.790003142952916L204.5105557169233,17.790003142952916L204.70204500130245,17.790003142952916L204.79778964349202,17.790003142952916L205.27651285443986,17.790003142952916L205.56374678100858,17.790003142952916L205.75523606538772,17.790003142952916L206.04246999195644,17.790003142952916L206.32970391852515,17.790003142952916L206.42544856071473,17.790003142952916L206.61693784509384,17.790003142952916L206.80842712947302,17.790003142952916L207.38289498261042,17.790003142952916L207.4786396248,17.790003142952916L207.67012890917914,17.790003142952916L207.8616181935583,17.790003142952916L208.72331997326444,17.790003142952916L208.81906461545398,17.790003142952916L208.91480925764355,17.790003142952916L209.01055389983316,17.790003142952916L210.15948960610797,17.790003142952916L210.35097889048714,17.790003142952916L210.54246817486626,17.790003142952916L210.7339574592454,17.790003142952916L211.1169360280037,17.790003142952916L211.21268067019327,17.790003142952916L211.30842531238284,17.790003142952916L211.4041699545724,17.790003142952916L211.49991459676198,17.790003142952916L211.59565923895153,17.790003142952916L211.6914038811411,17.790003142952916L211.88289316552027,17.790003142952916L211.97863780770982,17.790003142952916L212.0743824498994,17.790003142952916L212.26587173427856,17.790003142952916L212.7445949452264,17.790003142952916L213.03182887179508,17.790003142952916L213.22331815617426,17.790003142952916L213.31906279836383,17.790003142952916L213.51055208274295,17.790003142952916L213.79778600931166,17.790003142952916L214.08501993588038,17.790003142952916L214.27650922025953,17.790003142952916L214.56374314682824,17.790003142952916L214.85097707339693,17.790003142952916L214.94672171558653,17.790003142952916L215.23395564215522,17.790003142952916L215.4254449265344,17.790003142952916L215.52118956872394,17.790003142952916L216.28714670624052,17.790003142952916L216.3828913484301,17.790003142952916L216.5743806328092,17.790003142952916L217.05310384375707,17.790003142952916L217.53182705470493,17.790003142952916L217.62757169689453,17.790003142952916L217.72331633908408,17.790003142952916L217.91480562346322,17.790003142952916L218.01055026565277,17.790003142952916L218.20203955003194,17.790003142952916L218.39352883441106,17.790003142952916L218.6807627609798,17.790003142952916L218.77650740316935,17.790003142952916L219.15948597192764,17.790003142952916L219.6382091828755,17.790003142952916L219.82969846725462,17.790003142952916L220.40416632039208,17.790003142952916L220.49991096258162,17.790003142952916L220.5956556047712,17.790003142952916L220.69140024696077,17.790003142952916L220.78714488915037,17.790003142952916L221.07437881571906,17.790003142952916L221.2658681000982,17.790003142952916L221.55310202666692,17.790003142952916L221.64884666885646,17.790003142952916L221.93608059542518,17.790003142952916L222.12756987980435,17.790003142952916L222.31905916418347,17.790003142952916L222.41480380637304,17.790003142952916L222.51054844856262,17.790003142952916L222.8935270173209,17.790003142952916L223.2765055860792,17.790003142952916L223.37225022826874,17.790003142952916L223.4679948704583,17.790003142952916L223.8509734392166,17.790003142952916L223.9467180814062,17.790003142952916L224.13820736578532,17.790003142952916L224.2339520079749,17.790003142952916L224.42544129235404,17.790003142952916L224.5211859345436,17.790003142952916L224.61693057673318,17.790003142952916L224.8084198611123,17.790003142952916L224.9041645033019,17.790003142952916L224.99990914549147,17.790003142952916L225.09565378768104,17.790003142952916L225.38288771424976,17.790003142952916L225.57437699862888,17.790003142952916L225.67012164081845,17.790003142952916L226.24458949395589,17.790003142952916L226.34033413614546,17.790003142952916L226.43607877833503,17.790003142952916L226.81905734709332,17.790003142952916L227.01054663147244,17.790003142952916L227.2020359158516,17.790003142952916L227.5850144846099,17.790003142952916L228.25522697993688,17.790003142952916L228.5424609065056,17.790003142952916L228.7339501908847,17.790003142952916L228.9254394752639,17.790003142952916L229.02118411745346,17.790003142952916L229.21267340183257,17.790003142952916L229.40416268621175,17.790003142952916L229.59565197059086,17.790003142952916L229.69139661278044,17.790003142952916L229.78714125496998,17.790003142952916L230.07437518153873,17.790003142952916L230.17011982372827,17.790003142952916L230.45735375029702,17.790003142952916L230.55309839248656,17.790003142952916L230.84033231905528,17.790003142952916L231.127566245624,17.790003142952916L231.51054481438229,17.790003142952916L232.08501266751972,17.790003142952916L232.1807573097093,17.790003142952916L232.46799123627798,17.790003142952916L232.56373587846758,17.790003142952916L232.7552251628467,17.790003142952916L232.94671444722584,17.790003142952916L233.04245908941542,17.790003142952916L233.23394837379456,17.790003142952916L233.3296930159841,17.790003142952916L233.52118230036328,17.790003142952916L233.61692694255285,17.790003142952916L233.7126715847424,17.790003142952916L233.80841622693197,17.790003142952916L233.99990551131114,17.790003142952916L234.19139479569026,17.790003142952916L234.28713943787983,17.790003142952916L234.67011800663812,17.790003142952916L234.76586264882766,17.790003142952916L234.95735193320684,17.790003142952916L235.24458585977553,17.790003142952916L235.4360751441547,17.790003142952916L235.72330907072342,17.790003142952916L236.29777692386082,17.790003142952916L236.87224477699826,17.790003142952916L237.25522334575652,17.790003142952916L237.54245727232527,17.790003142952916L238.0211804832731,17.790003142952916L238.21266976765224,17.790003142952916L238.49990369422096,17.790003142952916L239.07437154735837,17.790003142952916L239.17011618954794,17.790003142952916L239.3616054739271,17.790003142952916L239.6488394004958,17.790003142952916L239.93607332706452,17.790003142952916L240.0318179692541,17.790003142952916L240.12756261144364,17.790003142952916L240.9892643911498,17.790003142952916L241.08500903333936,17.790003142952916L241.18075367552893,17.790003142952916L241.2764983177185,17.790003142952916L241.46798760209765,17.790003142952916L241.6594768864768,17.790003142952916L241.94671081304548,17.790003142952916L242.04245545523506,17.790003142952916L242.42543402399335,17.790003142952916L242.6169233083725,17.790003142952916L242.71266795056206,17.790003142952916L242.80841259275164,17.790003142952916L242.9041572349412,17.790003142952916L243.67011437245776,17.790003142952916L244.5318161521639,17.790003142952916L244.72330543654306,17.790003142952916L245.01053936311177,17.790003142952916L245.4892625740596,17.790003142952916L245.77649650062835,17.790003142952916L245.8722411428179,17.790003142952916L246.15947506938664,17.790003142952916L246.2552197115762,17.790003142952916L246.54245363814488,17.790003142952916L246.82968756471362,17.790003142952916L247.02117684909274,17.790003142952916L247.2126661334719,17.790003142952916L247.49990006004063,17.790003142952916L247.78713398660932,17.790003142952916L247.8828786287989,17.790003142952916L247.97862327098846,17.790003142952916L248.1701125553676,17.790003142952916L248.9360696928842,69.02520149025617L249.1275589772633,99.76632049863817L249.31904826164248,118.21099190366732L249.5105375460216,129.27779474668483L249.98926075696946,135.91787645249534L250.4679839679173,139.90192547598164L250.85096253667558,142.29235489007343L251.23394110543387,143.7266125385285L251.32968574762344,144.58716712760153L251.42543038981302,145.10349988104537L251.8084089585713,145.41329953311165L251.90415360076085,145.59917932435144L251.99989824295042,145.71070719909528L252.09564288514002,145.77762392394163L252.3828768117087,145.81777395884941L252.86160002265657,145.84186397979408L253.1488339492253,145.85631799236089L253.3403232336044,145.86499039990096L253.7233018023627,145.87019384442502L253.81904644455227,145.87331591113946L253.91479108674187,145.87518915116812L254.01053572893142,145.8763130951853L254.20202501331056,145.87698746159563L254.3935142976897,145.8773920814418L254.68074822425842,145.87763485334952L254.96798215082714,145.87778051649414L255.0637267930167,145.87786791438094L255.25521607739586,145.87792035311298L255.44670536177497,145.87795181635224L256.116917857102,145.87797069429578L256.40415178367067,145.8779820210619L256.49989642586024,145.87798881712158L256.6913857102394,145.8779928947574L256.88287499461853,145.87799534133887L257.0743642789977,145.87799680928774L257.17010892118725,145.8779976900571L257.3615982055664,145.8779982185187L257.6488321321351,145.87799853559565L257.84032141651426,145.87799872584182L258.127555343083,145.87799883998954L258.3190446274621,145.87799890847816L258.4147892696517,145.87799894957132" fill="none"></path></g></g></g></g><g opacity="0.2"><g><g><g><path style="fill: none;" stroke="rgb(255, 112, 67)" stroke-width="2px" d="M19.627651648862024,110.30956284949683L19.72339629105159,109.83510180167274L20.106374859809875,107.93726423766779L20.202119501999448,107.4628065034894L20.489353428568158,106.03942667366285L20.58509807075773,105.56496893948446L20.872331997326445,104.1415891096579L20.96807663951601,103.66713468912523L21.063821281705582,103.19267364130114L21.44679985046387,101.2948360772962L22.308501630170003,97.02469990146221L22.595735556738717,95.60132338528136L22.978714125497,93.70348582127642L23.17020340987614,92.75457035291966L23.361692694255286,91.80564825727147L23.457437336444855,91.3311938367388L23.648926620823996,90.38227174109062L23.840415905203137,89.43335627273386L24.22339447396142,87.53551870872892L24.319139116150993,87.06105766090482L24.41488375834056,86.58659661308073L24.510628400530134,86.11213556525664L24.606373042719706,85.63768114472397L25.18084089585713,82.79092148507084L25.372330180236272,81.84200601671408L25.46807482242584,81.36754496888999L25.563819464615413,80.8930839210659L25.659564106804982,80.41862950053323L25.946798033373696,78.99524635706095L26.04254267556327,78.52079193652828L26.138287317752837,78.04633088870419L26.234031959942406,77.5718698408801L26.712755170890265,75.19957785634249L27.191478381838117,72.82727924451345L27.478712308406827,71.4039027283326L27.5744569505964,70.9294416805085L28.148924803733824,68.0826886481468L28.914881941250393,64.28701352013692L29.202115867819106,62.86363700395608L29.29786051000868,62.389175956131986L29.96807300533567,59.06796187594619L30.255306931904382,57.64458535976534L30.446796216283527,56.69566326411715L31.117008711610524,53.374449183931354L31.212753353800093,52.89998813610726L31.499987280368803,51.47661161992641L31.595731922558375,51.002150572102316L32.26594441788537,47.680943119207946L32.45743370226451,46.73202102355976L32.648922986643655,45.783098927911574L32.74466762883323,45.30863788008748L32.8404122710228,44.83417683226339L33.51062476634979,41.51296275207759L33.98934797729765,39.14067076753998L34.180837261676785,38.191748671891794L34.27658190386636,37.7172876240677L34.37232654605593,37.24283983082646L34.65956047262464,35.81945668735418L34.94679439919336,34.396073543881904L35.138283683572496,33.44716470281657L35.23402832576207,32.97270365499248L35.52126225233078,31.549320511520197L36.095730105468206,28.702567479158493L36.19147474765778,28.2281064313344L36.38296403203692,27.279184335686214L36.670197958605634,25.85581444679679L36.86168724298477,24.906892351148603L36.95743188517434,24.43243130332451L37.14892116955348,23.483509207676324L37.34041045393263,22.53460036661099L37.4361550961222,22.0601393187869L38.10636759144919,18.7389252386011L38.87232472896576,17.790003142952916L38.96806937115533,17.790003142952916L39.0638140133449,17.790003142952916L39.44679258210318,17.790003142952916L40.404239003998896,17.790003142952916L40.49998364618847,17.790003142952916L40.6914729305676,17.790003142952916L40.882962214946744,17.790003142952916L41.07445149932589,17.790003142952916L41.3616854258946,17.790003142952916L41.45743006808417,17.790003142952916L41.553174710273744,17.790003142952916L41.84040863684246,17.790003142952916L42.797855058738165,17.790003142952916L42.98934434311731,17.790003142952916L43.56381219625473,17.790003142952916L43.85104612282344,17.790003142952916L43.94679076501301,17.790003142952916L44.042535407202585,17.790003142952916L44.13828004939216,17.790003142952916L44.3297693337713,17.790003142952916L44.71274790252958,17.790003142952916L44.90423718690872,17.790003142952916L45.09572647128786,17.790003142952916L45.287215755667006,17.790003142952916L45.765938966614854,17.790003142952916L46.34040681975228,17.790003142952916L47.01061931507928,17.790003142952916L47.10636395726885,17.790003142952916L47.5850871682167,17.790003142952916L47.680831810406275,17.790003142952916L47.96806573697499,17.790003142952916L48.063810379164565,17.790003142952916L48.15955502135413,17.790003142952916L48.54253359011241,17.790003142952916L48.638278232301985,17.790003142952916L48.82976751668112,17.790003142952916L49.11700144324984,17.790003142952916L49.49998001200812,17.790003142952916L49.595724654197696,17.790003142952916L49.69146929638726,17.790003142952916L49.78721393857683,17.790003142952916L49.97870322295597,17.790003142952916L50.26593714952469,17.790003142952916L50.36168179171426,17.790003142952916L50.457426433903834,17.790003142952916L50.744660360472544,17.790003142952916L51.031894287041254,17.790003142952916L51.60636214017868,17.790003142952916L51.79785142455783,17.790003142952916L52.08508535112654,17.790003142952916L52.18082999331611,17.790003142952916L52.37231927769525,17.790003142952916L52.46806391988481,17.790003142952916L52.946787130832675,17.790003142952916L53.04253177302225,17.790003142952916L53.42551034178053,17.790003142952916L53.61699962615967,17.790003142952916L53.90423355272838,17.790003142952916L54.28721212148667,17.790003142952916L54.67019069024495,17.790003142952916L54.86167997462409,17.790003142952916L55.24465854338237,17.790003142952916L55.340403185571944,17.790003142952916L55.436147827761516,17.790003142952916L55.627637112140654,17.790003142952916L56.10636032308851,17.790003142952916L56.202104965278075,17.790003142952916L56.585083534036364,17.790003142952916L56.68082817622594,17.790003142952916L56.77657281841551,17.790003142952916L57.73401924031121,17.790003142952916L58.21274245125907,17.790003142952916L58.88295494658606,17.790003142952916L58.97869958877563,17.790003142952916L59.45742279972349,17.790003142952916L59.55316744191306,17.790003142952916L59.744656726292206,17.790003142952916L59.93614601067134,17.790003142952916L60.31912457942963,17.790003142952916L61.180826359135764,17.790003142952916L61.3723156435149,17.790003142952916L61.468060285704475,17.790003142952916L61.755294212273185,17.790003142952916L62.32976206541062,17.790003142952916L63.09571920292718,17.790003142952916L63.19146384511675,17.790003142952916L63.28720848730632,17.790003142952916L63.47869777168547,17.790003142952916L63.57444241387504,17.790003142952916L63.86167634044374,17.790003142952916L63.957420982633316,17.790003142952916L64.43614419358117,17.790003142952916L64.53188883577074,17.790003142952916L65.58507989985603,17.790003142952916L65.87231382642473,17.790003142952916L65.9680584686143,17.790003142952916L66.15954775299345,17.790003142952916L66.35103703737259,17.790003142952916L66.63827096394131,17.790003142952916L67.69146202802658,17.790003142952916L68.07444059678487,17.790003142952916L68.17018523897444,17.790003142952916L68.36167452335357,17.790003142952916L68.64890844992229,17.790003142952916L68.84039773430143,17.790003142952916L69.31912094524928,17.790003142952916L69.41486558743887,17.790003142952916L69.98933344057627,17.790003142952916L70.18082272495542,17.790003142952916L70.27656736714499,17.790003142952916L70.37231200933456,17.790003142952916L70.46805665152414,17.790003142952916L70.56380129371371,17.790003142952916L70.65954593590328,17.790003142952916L70.85103522028243,17.790003142952916L71.04252450466156,17.790003142952916L71.52124771560942,17.790003142952916L71.61699235779898,17.790003142952916L71.71273699998856,17.790003142952916L71.90422628436771,17.790003142952916L72.28720485312597,17.790003142952916L72.47869413750512,17.790003142952916L72.67018342188426,17.790003142952916L73.05316199064255,17.790003142952916L73.14890663283212,17.790003142952916L73.24465127502168,17.790003142952916L73.62762984377997,17.790003142952916L74.01060841253826,17.790003142952916L74.10635305472782,17.790003142952916L74.39358698129655,17.790003142952916L74.58507626567568,17.790003142952916L74.68082090786525,17.790003142952916L74.77656555005481,17.790003142952916L74.8723101922444,17.790003142952916L74.96805483443396,17.790003142952916L75.06379947662354,17.790003142952916L75.25528876100267,17.790003142952916L75.35103340319225,17.790003142952916L75.82975661414011,17.790003142952916L75.92550125632967,17.790003142952916L76.21273518289838,17.790003142952916L76.30847982508796,17.790003142952916L76.59571375165666,17.790003142952916L76.7872030360358,17.790003142952916L77.1701816047941,17.790003142952916L77.36167088917324,17.790003142952916L77.55316017355239,17.790003142952916L77.74464945793152,17.790003142952916L78.03188338450023,17.790003142952916L78.41486195325851,17.790003142952916L78.5106065954481,17.790003142952916L78.70209587982723,17.790003142952916L78.98932980639594,17.790003142952916L79.37230837515423,17.790003142952916L79.85103158610208,17.790003142952916L80.52124408142907,17.790003142952916L80.61698872361865,17.790003142952916L80.80847800799779,17.790003142952916L80.90422265018735,17.790003142952916L80.99996729237694,17.790003142952916L81.0957119345665,17.790003142952916L81.28720121894564,17.790003142952916L81.57443514551434,17.790003142952916L81.95741371427263,17.790003142952916L82.0531583564622,17.790003142952916L82.4361369252205,17.790003142952916L82.7233708517892,17.790003142952916L83.10634942054749,17.790003142952916L83.39358334711619,17.790003142952916L83.48932798930578,17.790003142952916L83.58507263149534,17.790003142952916L83.68081727368492,17.790003142952916L83.77656191587448,17.790003142952916L83.96805120025363,17.790003142952916L84.06379584244318,17.790003142952916L84.15954048463277,17.790003142952916L84.35102976901192,17.790003142952916L84.44677441120147,17.790003142952916L84.54251905339105,17.790003142952916L84.63826369558062,17.790003142952916L84.82975297995976,17.790003142952916L85.0212422643389,17.790003142952916L85.11698690652847,17.790003142952916L85.78719940185547,17.790003142952916L86.07443332842418,17.790003142952916L86.17017797061376,17.790003142952916L86.26592261280332,17.790003142952916L86.45741189718247,17.790003142952916L86.74464582375117,17.790003142952916L86.93613510813032,17.790003142952916L87.12762439250946,17.790003142952916L87.51060296126774,17.790003142952916L87.89358153002603,17.790003142952916L88.18081545659473,17.790003142952916L88.27656009878432,17.790003142952916L88.37230474097387,17.790003142952916L88.46804938316346,17.790003142952916L88.56379402535302,17.790003142952916L89.04251723630087,17.790003142952916L89.6169850894383,17.790003142952916L89.80847437381745,17.790003142952916L89.90421901600702,17.790003142952916L89.99996365819658,17.790003142952916L90.2871975847653,17.790003142952916L90.57443151133401,17.790003142952916L90.67017615352357,17.790003142952916L90.9574100800923,17.790003142952916L91.05315472228186,17.790003142952916L91.14889936447145,17.790003142952916L91.34038864885058,17.790003142952916L91.53187793322971,17.790003142952916L92.10634578636714,17.790003142952916L92.39357971293586,17.790003142952916L92.48932435512542,17.790003142952916L92.77655828169415,17.790003142952916L92.87230292388371,17.790003142952916L92.96804756607328,17.790003142952916L93.15953685045241,17.790003142952916L93.255281492642,17.790003142952916L93.82974934577942,17.790003142952916L94.2127279145377,17.790003142952916L94.30847255672728,17.790003142952916L94.49996184110641,17.790003142952916L94.69145112548556,17.790003142952916L94.8829404098647,17.790003142952916L94.97868505205426,17.790003142952916L95.07442969424385,17.790003142952916L95.1701743364334,17.790003142952916L95.26591897862299,17.790003142952916L95.5531529051917,17.790003142952916L95.74464218957084,17.790003142952916L95.93613147394998,17.790003142952916L96.22336540051869,17.790003142952916L96.41485468489783,17.790003142952916L96.5105993270874,17.790003142952916L96.60634396927698,17.790003142952916L96.98932253803525,17.790003142952916L97.1808118224144,17.790003142952916L97.27655646460397,17.790003142952916L97.4680457489831,17.790003142952916L97.75527967555183,17.790003142952916L98.1382582443101,17.790003142952916L98.42549217087883,17.790003142952916L98.71272609744753,17.790003142952916L98.8084707396371,17.790003142952916L98.99996002401625,17.790003142952916L99.19144930839539,17.790003142952916L99.38293859277452,17.790003142952916L99.86166180372238,17.790003142952916L100.14889573029109,17.790003142952916L100.24464037248067,17.790003142952916L100.34038501467023,17.790003142952916L100.62761894123894,17.790003142952916L101.39357607875552,17.790003142952916L101.48932072094509,17.790003142952916L101.58506536313466,17.790003142952916L101.77655464751379,17.790003142952916L102.15953321627208,17.790003142952916L102.35102250065123,17.790003142952916L102.44676714284078,17.790003142952916L102.82974571159907,17.790003142952916L103.02123499597822,17.790003142952916L103.11697963816778,17.790003142952916L103.40421356473651,17.790003142952916L103.59570284911565,17.790003142952916L103.78719213349478,17.790003142952916L104.0744260600635,17.790003142952916L104.26591534444263,17.790003142952916L104.36165998663222,17.790003142952916L104.55314927101135,17.790003142952916L104.64889391320092,17.790003142952916L104.93612783976963,17.790003142952916L105.22336176633836,17.790003142952916L105.31910640852792,17.790003142952916L105.98931890385491,17.790003142952916L106.0850635460445,17.790003142952916L106.18080818823405,17.790003142952916L106.27655283042363,17.790003142952916L106.46804211480277,17.790003142952916L106.56378675699234,17.790003142952916L106.75527604137147,17.790003142952916L106.85102068356106,17.790003142952916L106.94676532575062,17.790003142952916L107.23399925231934,17.790003142952916L107.32974389450891,17.790003142952916L107.42548853669847,17.790003142952916L107.52123317888805,17.790003142952916L107.7127224632672,17.790003142952916L108.2871903164046,17.790003142952916L108.38293495859419,17.790003142952916L108.6701688851629,17.790003142952916L109.3403813804899,17.790003142952916L109.6276153070586,17.790003142952916L110.2978278023856,17.790003142952916L110.39357244457518,17.790003142952916L110.48931708676474,17.790003142952916L110.68080637114389,17.790003142952916L110.77655101333346,17.790003142952916L110.87229565552303,17.790003142952916L111.15952958209174,17.790003142952916L111.25527422428131,17.790003142952916L111.44676350866045,17.790003142952916L111.6382527930396,17.790003142952916L111.73399743522916,17.790003142952916L112.11697600398745,17.790003142952916L112.21272064617702,17.790003142952916L112.5956992149353,17.790003142952916L112.69144385712488,17.790003142952916L112.78718849931444,17.790003142952916L112.88293314150403,17.790003142952916L113.17016706807273,17.790003142952916L113.2659117102623,17.790003142952916L113.36165635245187,17.790003142952916L113.64889027902058,17.790003142952916L113.74463492121015,17.790003142952916L114.51059205872673,17.790003142952916L114.89357062748499,17.790003142952916L115.08505991186414,17.790003142952916L115.27654919624328,17.790003142952916L115.37229383843287,17.790003142952916L115.65952776500157,17.790003142952916L115.75527240719114,17.790003142952916L115.94676169157029,17.790003142952916L116.04250633375986,17.790003142952916L116.13825097594942,17.790003142952916L116.23399561813899,17.790003142952916L116.52122954470771,17.790003142952916L117.28718668222427,17.790003142952916L117.47867596660342,17.790003142952916L117.67016525098256,17.790003142952916L117.86165453536171,17.790003142952916L117.95739917755127,17.790003142952916L118.05314381974084,17.790003142952916L118.24463310411998,17.790003142952916L118.43612238849913,17.790003142952916L118.53186703068869,17.790003142952916L118.62761167287826,17.790003142952916L118.91484559944698,17.790003142952916L119.10633488382612,17.790003142952916L119.77654737915312,17.790003142952916L119.87229202134267,17.790003142952916L120.1595259479114,17.790003142952916L120.35101523229055,17.790003142952916L120.92548308542797,17.790003142952916L121.02122772761753,17.790003142952916L121.21271701199667,17.790003142952916L121.40420629637582,17.790003142952916L121.78718486513411,17.790003142952916L122.1701634338924,17.790003142952916L122.36165271827153,17.790003142952916L122.55314200265066,17.790003142952916L122.84037592921939,17.790003142952916L122.93612057140895,17.790003142952916L123.03186521359852,17.790003142952916L123.1276098557881,17.790003142952916L123.70207770892551,17.790003142952916L123.79782235111509,17.790003142952916L124.37229020425251,17.790003142952916L124.56377948863165,17.790003142952916L124.7552687730108,17.790003142952916L124.85101341520037,17.790003142952916L124.94675805738994,17.790003142952916L125.80845983709608,17.790003142952916L125.99994912147521,17.790003142952916L126.28718304804394,17.790003142952916L126.6701616168022,17.790003142952916L126.86165090118135,17.790003142952916L126.95739554337094,17.790003142952916L127.34037411212921,17.790003142952916L127.43611875431878,17.790003142952916L127.62760803869793,17.790003142952916L127.72335268088749,17.790003142952916L127.81909732307707,17.790003142952916L128.1063312496458,17.790003142952916L128.20207589183534,17.790003142952916L129.15952231373106,17.790003142952916L129.3510115981102,17.790003142952916L129.44675624029978,17.790003142952916L129.7339901668685,17.790003142952916L129.82973480905804,17.790003142952916L129.92547945124764,17.790003142952916L130.21271337781633,17.790003142952916L130.3084580200059,17.790003142952916L130.40420266219547,17.790003142952916L131.84037229503903,17.790003142952916L132.12760622160775,17.790003142952916L132.3190955059869,17.790003142952916L132.41484014817647,17.790003142952916L132.6063294325556,17.790003142952916L132.70207407474518,17.790003142952916L132.98930800131387,17.790003142952916L133.27654192788262,17.790003142952916L133.37228657007216,17.790003142952916L133.46803121226174,17.790003142952916L133.5637758544513,17.790003142952916L133.75526513883045,17.790003142952916L133.9467544232096,17.790003142952916L134.13824370758874,17.790003142952916L134.3297329919679,17.790003142952916L134.42547763415746,17.790003142952916L134.61696691853658,17.790003142952916L134.80845620291575,17.790003142952916L134.99994548729487,17.790003142952916L135.09569012948444,17.790003142952916L135.19143477167404,17.790003142952916L135.2871794138636,17.790003142952916L135.38292405605316,17.790003142952916L136.34037047794888,17.790003142952916L136.72334904670714,17.790003142952916L137.10632761546543,17.790003142952916L137.202072257655,17.790003142952916L137.29781689984458,17.790003142952916L137.48930618422372,17.790003142952916L137.77654011079244,17.790003142952916L138.06377403736116,17.790003142952916L138.25526332174027,17.790003142952916L138.44675260611945,17.790003142952916L138.542497248309,17.790003142952916L138.73398653268814,17.790003142952916L139.11696510144643,17.790003142952916L139.21270974363597,17.790003142952916L139.30845438582557,17.790003142952916L139.49994367020471,17.790003142952916L139.59568831239426,17.790003142952916L139.882922238963,17.790003142952916L139.97866688115255,17.790003142952916L140.07441152334212,17.790003142952916L140.17015616553172,17.790003142952916L140.36164544991084,17.790003142952916L140.8403686608587,17.790003142952916L141.12760258742742,17.790003142952916L141.60632579837528,17.790003142952916L141.7978150827544,17.790003142952916L142.1807936515127,17.790003142952916L142.37228293589183,17.790003142952916L142.75526150465012,17.790003142952916L142.85100614683967,17.790003142952916L142.94675078902927,17.790003142952916L143.04249543121884,17.790003142952916L143.23398471559796,17.790003142952916L143.52121864216667,17.790003142952916L143.61696328435625,17.790003142952916L143.80845256873542,17.790003142952916L143.90419721092496,17.790003142952916L143.99994185311454,17.790003142952916L144.57440970625194,17.790003142952916L144.76589899063111,17.790003142952916L144.8616436328207,17.790003142952916L145.0531329171998,17.790003142952916L145.1488775593894,17.790003142952916L145.4361114859581,17.790003142952916L145.53185612814767,17.790003142952916L146.0105793390955,17.790003142952916L146.1063239812851,17.790003142952916L146.20206862347467,17.790003142952916L146.48930255004336,17.790003142952916L146.68079183442254,17.790003142952916L146.77653647661208,17.790003142952916L146.87228111880165,17.790003142952916L146.96802576099125,17.790003142952916L147.0637704031808,17.790003142952916L147.15951504537037,17.790003142952916L147.7339828985078,17.790003142952916L148.21270610945564,17.790003142952916L148.30845075164524,17.790003142952916L148.4041953938348,17.790003142952916L148.88291860478265,17.790003142952916L149.26589717354094,17.790003142952916L149.45738645792008,17.790003142952916L149.55313110010962,17.790003142952916L149.9361096688679,17.790003142952916L150.3190882376262,17.790003142952916L150.98930073295318,17.790003142952916L151.18079001733236,17.790003142952916L151.46802394390104,17.790003142952916L151.65951322828022,17.790003142952916L151.75525787046976,17.790003142952916L152.0424917970385,17.790003142952916L152.13823643922805,17.790003142952916L152.3297257236072,17.790003142952916L152.42547036579677,17.790003142952916L152.7127042923655,17.790003142952916L154.3403632095882,17.790003142952916L154.43610785177776,17.790003142952916L154.53185249396734,17.790003142952916L154.62759713615688,17.790003142952916L155.01057570491517,17.790003142952916L155.2978096314839,17.790003142952916L155.39355427367346,17.790003142952916L155.68078820024218,17.790003142952916L155.77653284243175,17.790003142952916L155.87227748462132,17.790003142952916L156.2552560533796,17.790003142952916L156.35100069556916,17.790003142952916L156.44674533775873,17.790003142952916L156.6382346221379,17.790003142952916L156.82972390651702,17.790003142952916L157.0212131908962,17.790003142952916L157.2127024752753,17.790003142952916L157.7871703284127,17.790003142952916L157.9786596127919,17.790003142952916L158.45738282373975,17.790003142952916L158.5531274659293,17.790003142952916L159.41482924563545,17.790003142952916L159.51057388782502,17.790003142952916L160.56376495191031,17.790003142952916L160.94674352066858,17.790003142952916L161.04248816285815,17.790003142952916L161.32972208942684,17.790003142952916L161.4254667316164,17.790003142952916L161.71270065818513,17.790003142952916L161.9041899425643,17.790003142952916L161.99993458475387,17.790003142952916L162.09567922694342,17.790003142952916L162.7658917222704,17.790003142952916L162.86163636446,17.790003142952916L162.95738100664957,17.790003142952916L163.05312564883914,17.790003142952916L163.34035957540786,17.790003142952916L163.53184885978698,17.790003142952916L163.62759350197655,17.790003142952916L163.72333814416615,17.790003142952916L163.8190827863557,17.790003142952916L164.29780599730356,17.790003142952916L164.4892952816827,17.790003142952916L164.96801849263053,17.790003142952916L165.06376313482014,17.790003142952916L165.35099706138882,17.790003142952916L166.02120955671583,17.790003142952916L166.21269884109498,17.790003142952916L167.17014526299067,17.790003142952916L167.36163454736985,17.790003142952916L167.4573791895594,17.790003142952916L167.64886847393853,17.790003142952916L167.74461311612808,17.790003142952916L167.93610240050725,17.790003142952916L168.03184704269682,17.790003142952916L168.60631489583423,17.790003142952916L168.70205953802383,17.790003142952916L169.27652739116124,17.790003142952916L169.3722720333508,17.790003142952916L170.23397381305693,17.790003142952916L170.61695238181522,17.790003142952916L170.80844166619437,17.790003142952916L171.19142023495266,17.790003142952916L171.76588808809007,17.790003142952916L172.05312201465878,17.790003142952916L172.24461129903793,17.790003142952916L172.53184522560665,17.790003142952916L172.72333450998576,17.790003142952916L172.81907915217536,17.790003142952916L173.20205772093362,17.790003142952916L173.29780236312322,17.790003142952916L173.48929164750234,17.790003142952916L173.5850362896919,17.790003142952916L173.7765255740711,17.790003142952916L174.06375950063978,17.790003142952916L174.15950414282935,17.790003142952916L174.25524878501892,17.790003142952916L174.6382273537772,17.790003142952916L174.82971663815636,17.790003142952916L174.9254612803459,17.790003142952916L175.02120592253547,17.790003142952916L175.21269520691465,17.790003142952916L175.40418449129376,17.790003142952916L175.5956737756729,17.790003142952916L175.88290770224162,17.790003142952916L176.17014162881034,17.790003142952916L176.2658862709999,17.790003142952916L176.36163091318946,17.790003142952916L176.64886483975818,17.790003142952916L176.84035412413735,17.790003142952916L176.93609876632692,17.790003142952916L177.2233326928956,17.790003142952916L177.3190773350852,17.790003142952916L177.6063112616539,17.790003142952916L177.9892898304122,17.790003142952916L178.08503447260173,17.790003142952916L178.1807791147913,17.790003142952916L178.8509916101183,17.790003142952916L179.04248089449746,17.790003142952916L179.13822553668706,17.790003142952916L179.2339701788766,17.790003142952916L179.5212041054453,17.790003142952916L179.6169487476349,17.790003142952916L179.80843803201404,17.790003142952916L180.19141660077233,17.790003142952916L180.28716124296187,17.790003142952916L180.38290588515144,17.790003142952916L180.67013981172016,17.790003142952916L181.05311838047845,17.790003142952916L181.14886302266802,17.790003142952916L181.34035230704714,17.790003142952916L181.43609694923674,17.790003142952916L181.5318415914263,17.790003142952916L181.6275862336159,17.790003142952916L181.81907551799503,17.790003142952916L182.10630944456372,17.790003142952916L182.2020540867533,17.790003142952916L182.2977987289429,17.790003142952916L182.39354337113244,17.790003142952916L182.77652193989073,17.790003142952916L182.8722665820803,17.790003142952916L183.35098979302816,17.790003142952916L183.54247907740728,17.790003142952916L183.63822371959688,17.790003142952916L183.73396836178645,17.790003142952916L184.11694693054474,17.790003142952916L184.40418085711343,17.790003142952916L184.59567014149258,17.790003142952916L184.88290406806126,17.790003142952916L184.97864871025084,17.790003142952916L185.07439335244044,17.790003142952916L185.17013799463,17.790003142952916L185.26588263681955,17.790003142952916L185.45737192119873,17.790003142952916L185.64886120557784,17.790003142952916L185.93609513214656,17.790003142952916L186.03183977433613,17.790003142952916L186.22332905871528,17.790003142952916L186.31907370090482,17.790003142952916L186.41481834309442,17.790003142952916L186.7020522696631,17.790003142952916L186.8935415540423,17.790003142952916L186.98928619623183,17.790003142952916L187.0850308384214,17.790003142952916L187.18077548061098,17.790003142952916L187.85098797593798,17.790003142952916L187.94673261812756,17.790003142952916L188.23396654469627,17.790003142952916L188.71268975564413,17.790003142952916L189.09566832440242,17.790003142952916L189.67013617753983,17.790003142952916L189.7658808197294,17.790003142952916L189.95737010410852,17.790003142952916L190.3403486728668,17.790003142952916L190.4360933150564,17.790003142952916L190.53183795724598,17.790003142952916L190.7233272416251,17.790003142952916L190.81907188381467,17.790003142952916L190.91481652600424,17.790003142952916L191.2977950947625,17.790003142952916L191.6807736635208,17.790003142952916L191.87226294789997,17.790003142952916L191.96800759008954,17.790003142952916L192.7339647276061,17.790003142952916L192.82970936979567,17.790003142952916L193.11694329636435,17.790003142952916L193.40417722293307,17.790003142952916L193.78715579169136,17.790003142952916L193.9786450760705,17.790003142952916L194.3616236448288,17.790003142952916L194.84034685577663,17.790003142952916L194.9360914979662,17.790003142952916L195.3190700667245,17.790003142952916L195.4148147089141,17.790003142952916L195.70204863548278,17.790003142952916L195.79779327767235,17.790003142952916L195.89353791986196,17.790003142952916L196.18077184643064,17.790003142952916L196.46800577299936,17.790003142952916L196.56375041518893,17.790003142952916L196.75523969956805,17.790003142952916L196.94672898394722,17.790003142952916L197.04247362613677,17.790003142952916L197.13821826832634,17.790003142952916L197.80843076365335,17.790003142952916L197.9999200480325,17.790003142952916L198.09566469022204,17.790003142952916L198.6701325433595,17.790003142952916L198.76587718554904,17.790003142952916L198.86162182773862,17.790003142952916L198.9573664699282,17.790003142952916L199.0531111121178,17.790003142952916L199.2446003964969,17.790003142952916L199.53183432306562,17.790003142952916L200.2020468183926,17.790003142952916L200.29779146058218,17.790003142952916L200.39353610277178,17.790003142952916L201.25523788247787,17.790003142952916L201.54247180904662,17.790003142952916L201.63821645123616,17.790003142952916L202.02119501999445,17.790003142952916L202.11693966218402,17.790003142952916L202.21268430437362,17.790003142952916L202.3084289465632,17.790003142952916L202.5956628731319,17.790003142952916L202.69140751532146,17.790003142952916L202.78715215751103,17.790003142952916L202.8828967997006,17.790003142952916L203.2658753684589,17.790003142952916L203.36162001064847,17.790003142952916L203.457364652838,17.790003142952916L203.74459857940673,17.790003142952916L203.93608786378587,17.790003142952916L204.12757714816502,17.790003142952916L204.31906643254416,17.790003142952916L204.41481107473373,17.790003142952916L204.5105557169233,17.790003142952916L204.70204500130245,17.790003142952916L204.79778964349202,17.790003142952916L205.27651285443986,17.790003142952916L205.56374678100858,17.790003142952916L205.75523606538772,17.790003142952916L206.04246999195644,17.790003142952916L206.32970391852515,17.790003142952916L206.42544856071473,17.790003142952916L206.61693784509384,17.790003142952916L206.80842712947302,17.790003142952916L207.38289498261042,17.790003142952916L207.4786396248,17.790003142952916L207.67012890917914,17.790003142952916L207.8616181935583,17.790003142952916L208.72331997326444,17.790003142952916L208.81906461545398,17.790003142952916L208.91480925764355,17.790003142952916L209.01055389983316,17.790003142952916L210.15948960610797,17.790003142952916L210.35097889048714,17.790003142952916L210.54246817486626,17.790003142952916L210.7339574592454,17.790003142952916L211.1169360280037,17.790003142952916L211.21268067019327,17.790003142952916L211.30842531238284,17.790003142952916L211.4041699545724,17.790003142952916L211.49991459676198,17.790003142952916L211.59565923895153,17.790003142952916L211.6914038811411,17.790003142952916L211.88289316552027,17.790003142952916L211.97863780770982,17.790003142952916L212.0743824498994,17.790003142952916L212.26587173427856,17.790003142952916L212.7445949452264,17.790003142952916L213.03182887179508,17.790003142952916L213.22331815617426,17.790003142952916L213.31906279836383,17.790003142952916L213.51055208274295,17.790003142952916L213.79778600931166,17.790003142952916L214.08501993588038,17.790003142952916L214.27650922025953,17.790003142952916L214.56374314682824,17.790003142952916L214.85097707339693,17.790003142952916L214.94672171558653,17.790003142952916L215.23395564215522,17.790003142952916L215.4254449265344,17.790003142952916L215.52118956872394,17.790003142952916L216.28714670624052,17.790003142952916L216.3828913484301,17.790003142952916L216.5743806328092,17.790003142952916L217.05310384375707,17.790003142952916L217.53182705470493,17.790003142952916L217.62757169689453,17.790003142952916L217.72331633908408,17.790003142952916L217.91480562346322,17.790003142952916L218.01055026565277,17.790003142952916L218.20203955003194,17.790003142952916L218.39352883441106,17.790003142952916L218.6807627609798,17.790003142952916L218.77650740316935,17.790003142952916L219.15948597192764,17.790003142952916L219.6382091828755,17.790003142952916L219.82969846725462,17.790003142952916L220.40416632039208,17.790003142952916L220.49991096258162,17.790003142952916L220.5956556047712,17.790003142952916L220.69140024696077,17.790003142952916L220.78714488915037,17.790003142952916L221.07437881571906,17.790003142952916L221.2658681000982,17.790003142952916L221.55310202666692,17.790003142952916L221.64884666885646,17.790003142952916L221.93608059542518,17.790003142952916L222.12756987980435,17.790003142952916L222.31905916418347,17.790003142952916L222.41480380637304,17.790003142952916L222.51054844856262,17.790003142952916L222.8935270173209,17.790003142952916L223.2765055860792,17.790003142952916L223.37225022826874,17.790003142952916L223.4679948704583,17.790003142952916L223.8509734392166,17.790003142952916L223.9467180814062,17.790003142952916L224.13820736578532,17.790003142952916L224.2339520079749,17.790003142952916L224.42544129235404,17.790003142952916L224.5211859345436,17.790003142952916L224.61693057673318,17.790003142952916L224.8084198611123,17.790003142952916L224.9041645033019,17.790003142952916L224.99990914549147,17.790003142952916L225.09565378768104,17.790003142952916L225.38288771424976,17.790003142952916L225.57437699862888,17.790003142952916L225.67012164081845,17.790003142952916L226.24458949395589,17.790003142952916L226.34033413614546,17.790003142952916L226.43607877833503,17.790003142952916L226.81905734709332,17.790003142952916L227.01054663147244,17.790003142952916L227.2020359158516,17.790003142952916L227.5850144846099,17.790003142952916L228.25522697993688,17.790003142952916L228.5424609065056,17.790003142952916L228.7339501908847,17.790003142952916L228.9254394752639,17.790003142952916L229.02118411745346,17.790003142952916L229.21267340183257,17.790003142952916L229.40416268621175,17.790003142952916L229.59565197059086,17.790003142952916L229.69139661278044,17.790003142952916L229.78714125496998,17.790003142952916L230.07437518153873,17.790003142952916L230.17011982372827,17.790003142952916L230.45735375029702,17.790003142952916L230.55309839248656,17.790003142952916L230.84033231905528,17.790003142952916L231.127566245624,17.790003142952916L231.51054481438229,17.790003142952916L232.08501266751972,17.790003142952916L232.1807573097093,17.790003142952916L232.46799123627798,17.790003142952916L232.56373587846758,17.790003142952916L232.7552251628467,17.790003142952916L232.94671444722584,17.790003142952916L233.04245908941542,17.790003142952916L233.23394837379456,17.790003142952916L233.3296930159841,17.790003142952916L233.52118230036328,17.790003142952916L233.61692694255285,17.790003142952916L233.7126715847424,17.790003142952916L233.80841622693197,17.790003142952916L233.99990551131114,17.790003142952916L234.19139479569026,17.790003142952916L234.28713943787983,17.790003142952916L234.67011800663812,17.790003142952916L234.76586264882766,17.790003142952916L234.95735193320684,17.790003142952916L235.24458585977553,17.790003142952916L235.4360751441547,17.790003142952916L235.72330907072342,17.790003142952916L236.29777692386082,17.790003142952916L236.87224477699826,17.790003142952916L237.25522334575652,17.790003142952916L237.54245727232527,17.790003142952916L238.0211804832731,17.790003142952916L238.21266976765224,17.790003142952916L238.49990369422096,17.790003142952916L239.07437154735837,17.790003142952916L239.17011618954794,17.790003142952916L239.3616054739271,17.790003142952916L239.6488394004958,17.790003142952916L239.93607332706452,17.790003142952916L240.0318179692541,17.790003142952916L240.12756261144364,17.790003142952916L240.9892643911498,17.790003142952916L241.08500903333936,17.790003142952916L241.18075367552893,17.790003142952916L241.2764983177185,17.790003142952916L241.46798760209765,17.790003142952916L241.6594768864768,17.790003142952916L241.94671081304548,17.790003142952916L242.04245545523506,17.790003142952916L242.42543402399335,17.790003142952916L242.6169233083725,17.790003142952916L242.71266795056206,17.790003142952916L242.80841259275164,17.790003142952916L242.9041572349412,17.790003142952916L243.67011437245776,17.790003142952916L244.5318161521639,17.790003142952916L244.72330543654306,17.790003142952916L245.01053936311177,17.790003142952916L245.4892625740596,17.790003142952916L245.77649650062835,17.790003142952916L245.8722411428179,17.790003142952916L246.15947506938664,17.790003142952916L246.2552197115762,17.790003142952916L246.54245363814488,17.790003142952916L246.82968756471362,17.790003142952916L247.02117684909274,17.790003142952916L247.2126661334719,17.790003142952916L247.49990006004063,17.790003142952916L247.78713398660932,17.790003142952916L247.8828786287989,17.790003142952916L247.97862327098846,17.790003142952916L248.1701125553676,17.790003142952916L248.9360696928842,145.87799901121107L249.1275589772633,145.87799901121107L249.31904826164248,145.87799901121107L249.5105375460216,145.87799901121107L249.98926075696946,145.87799901121107L250.4679839679173,145.87799901121107L250.85096253667558,145.87799901121107L251.23394110543387,145.87799901121107L251.32968574762344,145.87799901121107L251.42543038981302,145.87799901121107L251.8084089585713,145.87799901121107L251.90415360076085,145.87799901121107L251.99989824295042,145.87799901121107L252.09564288514002,145.87799901121107L252.3828768117087,145.87799901121107L252.86160002265657,145.87799901121107L253.1488339492253,145.87799901121107L253.3403232336044,145.87799901121107L253.7233018023627,145.87799901121107L253.81904644455227,145.87799901121107L253.91479108674187,145.87799901121107L254.01053572893142,145.87799901121107L254.20202501331056,145.87799901121107L254.3935142976897,145.87799901121107L254.68074822425842,145.87799901121107L254.96798215082714,145.87799901121107L255.0637267930167,145.87799901121107L255.25521607739586,145.87799901121107L255.44670536177497,145.87799901121107L256.116917857102,145.87799901121107L256.40415178367067,145.87799901121107L256.49989642586024,145.87799901121107L256.6913857102394,145.87799901121107L256.88287499461853,145.87799901121107L257.0743642789977,145.87799901121107L257.17010892118725,145.87799901121107L257.3615982055664,145.87799901121107L257.6488321321351,145.87799901121107L257.84032141651426,145.87799901121107L258.127555343083,145.87799901121107L258.3190446274621,145.87799901121107L258.4147892696517,145.87799901121107" fill="none"></path></g></g></g></g></g></g><g transform="translate(61, 177)" clip-path="url(#clip_1)"><clipPath id="clip_1"><rect width="268" height="22"></rect></clipPath><g><g><line x1="0" y1="0" x2="0" y2="5" style="visibility: inherit;" fill="rgb(0, 0, 0)" stroke="rgb(204, 204, 204)" stroke-width="1px"></line><line x1="19.148928437914165" y1="0" x2="19.148928437914165" y2="5" style="visibility: inherit;" fill="rgb(0, 0, 0)" stroke="rgb(204, 204, 204)" stroke-width="1px"></line><line x1="38.29785687582833" y1="0" x2="38.29785687582833" y2="5" style="visibility: inherit;" fill="rgb(0, 0, 0)" stroke="rgb(204, 204, 204)" stroke-width="1px"></line><line x1="57.446785313742495" y1="0" x2="57.446785313742495" y2="5" style="visibility: inherit;" fill="rgb(0, 0, 0)" stroke="rgb(204, 204, 204)" stroke-width="1px"></line><line x1="76.59571375165666" y1="0" x2="76.59571375165666" y2="5" style="visibility: inherit;" fill="rgb(0, 0, 0)" stroke="rgb(204, 204, 204)" stroke-width="1px"></line><line x1="95.74464218957084" y1="0" x2="95.74464218957084" y2="5" style="visibility: inherit;" fill="rgb(0, 0, 0)" stroke="rgb(204, 204, 204)" stroke-width="1px"></line><line x1="114.89357062748499" y1="0" x2="114.89357062748499" y2="5" style="visibility: inherit;" fill="rgb(0, 0, 0)" stroke="rgb(204, 204, 204)" stroke-width="1px"></line><line x1="134.04249906539917" y1="0" x2="134.04249906539917" y2="5" style="visibility: inherit;" fill="rgb(0, 0, 0)" stroke="rgb(204, 204, 204)" stroke-width="1px"></line><line x1="153.19142750331332" y1="0" x2="153.19142750331332" y2="5" style="visibility: inherit;" fill="rgb(0, 0, 0)" stroke="rgb(204, 204, 204)" stroke-width="1px"></line><line x1="172.34035594122753" y1="0" x2="172.34035594122753" y2="5" style="visibility: inherit;" fill="rgb(0, 0, 0)" stroke="rgb(204, 204, 204)" stroke-width="1px"></line><line x1="191.48928437914168" y1="0" x2="191.48928437914168" y2="5" style="visibility: inherit;" fill="rgb(0, 0, 0)" stroke="rgb(204, 204, 204)" stroke-width="1px"></line><line x1="210.63821281705583" y1="0" x2="210.63821281705583" y2="5" style="visibility: inherit;" fill="rgb(0, 0, 0)" stroke="rgb(204, 204, 204)" stroke-width="1px"></line><line x1="229.78714125496998" y1="0" x2="229.78714125496998" y2="5" style="visibility: inherit;" fill="rgb(0, 0, 0)" stroke="rgb(204, 204, 204)" stroke-width="1px"></line><line x1="248.9360696928842" y1="0" x2="248.9360696928842" y2="5" style="visibility: inherit;" fill="rgb(0, 0, 0)" stroke="rgb(204, 204, 204)" stroke-width="1px"></line><line x1="268.08499813079834" y1="0" x2="268.08499813079834" y2="5" style="visibility: inherit;" fill="rgb(0, 0, 0)" stroke="rgb(204, 204, 204)" stroke-width="1px"></line></g><g transform="translate(0, 8)"><text style="text-anchor: middle; visibility: hidden; font-family: Roboto, sans-serif; font-size: 12px; font-weight: 200;" x="0" y="0" dx="0em" dy="0.95em" fill="rgb(50, 49, 63)" stroke="none" stroke-width="1px">-200</text><text style="text-anchor: middle; visibility: inherit; font-family: Roboto, sans-serif; font-size: 12px; font-weight: 200;" x="19.148928437914165" y="0" dx="0em" dy="0.95em" fill="rgb(50, 49, 63)" stroke="none" stroke-width="1px">0</text><text style="text-anchor: middle; visibility: hidden; font-family: Roboto, sans-serif; font-size: 12px; font-weight: 200;" x="38.29785687582833" y="0" dx="0em" dy="0.95em" fill="rgb(50, 49, 63)" stroke="none" stroke-width="1px">200</text><text style="text-anchor: middle; visibility: inherit; font-family: Roboto, sans-serif; font-size: 12px; font-weight: 200;" x="57.446785313742495" y="0" dx="0em" dy="0.95em" fill="rgb(50, 49, 63)" stroke="none" stroke-width="1px">400</text><text style="text-anchor: middle; visibility: hidden; font-family: Roboto, sans-serif; font-size: 12px; font-weight: 200;" x="76.59571375165666" y="0" dx="0em" dy="0.95em" fill="rgb(50, 49, 63)" stroke="none" stroke-width="1px">600</text><text style="text-anchor: middle; visibility: inherit; font-family: Roboto, sans-serif; font-size: 12px; font-weight: 200;" x="95.74464218957084" y="0" dx="0em" dy="0.95em" fill="rgb(50, 49, 63)" stroke="none" stroke-width="1px">800</text><text style="text-anchor: middle; visibility: hidden; font-family: Roboto, sans-serif; font-size: 12px; font-weight: 200;" x="114.89357062748499" y="0" dx="0em" dy="0.95em" fill="rgb(50, 49, 63)" stroke="none" stroke-width="1px">1k</text><text style="text-anchor: middle; visibility: inherit; font-family: Roboto, sans-serif; font-size: 12px; font-weight: 200;" x="134.04249906539917" y="0" dx="0em" dy="0.95em" fill="rgb(50, 49, 63)" stroke="none" stroke-width="1px">1.2k</text><text style="text-anchor: middle; visibility: hidden; font-family: Roboto, sans-serif; font-size: 12px; font-weight: 200;" x="153.19142750331332" y="0" dx="0em" dy="0.95em" fill="rgb(50, 49, 63)" stroke="none" stroke-width="1px">1.4k</text><text style="text-anchor: middle; visibility: inherit; font-family: Roboto, sans-serif; font-size: 12px; font-weight: 200;" x="172.34035594122753" y="0" dx="0em" dy="0.95em" fill="rgb(50, 49, 63)" stroke="none" stroke-width="1px">1.6k</text><text style="text-anchor: middle; visibility: hidden; font-family: Roboto, sans-serif; font-size: 12px; font-weight: 200;" x="191.48928437914168" y="0" dx="0em" dy="0.95em" fill="rgb(50, 49, 63)" stroke="none" stroke-width="1px">1.8k</text><text style="text-anchor: middle; visibility: inherit; font-family: Roboto, sans-serif; font-size: 12px; font-weight: 200;" x="210.63821281705583" y="0" dx="0em" dy="0.95em" fill="rgb(50, 49, 63)" stroke="none" stroke-width="1px">2k</text><text style="text-anchor: middle; visibility: hidden; font-family: Roboto, sans-serif; font-size: 12px; font-weight: 200;" x="229.78714125496998" y="0" dx="0em" dy="0.95em" fill="rgb(50, 49, 63)" stroke="none" stroke-width="1px">2.2k</text><text style="text-anchor: middle; visibility: inherit; font-family: Roboto, sans-serif; font-size: 12px; font-weight: 200;" x="248.9360696928842" y="0" dx="0em" dy="0.95em" fill="rgb(50, 49, 63)" stroke="none" stroke-width="1px">2.4k</text><text style="text-anchor: middle; visibility: hidden; font-family: Roboto, sans-serif; font-size: 12px; font-weight: 200;" x="268.08499813079834" y="0" dx="0em" dy="0.95em" fill="rgb(50, 49, 63)" stroke="none" stroke-width="1px">2.6k</text></g><line x1="0" y1="0" x2="268.08499813079834" y2="0" fill="rgb(0, 0, 0)" stroke="rgb(204, 204, 204)" stroke-width="1px"></line></g></g></g></g></svg>