<svg viewBox="0 0 1180 400" xmlns="http://www.w3.org/2000/svg"><g><g><g><g><g><line x1="61.91500186920166" y1="377.9749994277954" x2="56.91500186920166" y2="377.9749994277954" style="visibility: inherit;" fill="rgb(0, 0, 0)" stroke="rgb(204, 204, 204)" stroke-width="1px"></line><line x1="61.91500186920166" y1="343.61363584345037" x2="56.91500186920166" y2="343.61363584345037" style="visibility: inherit;" fill="rgb(0, 0, 0)" stroke="rgb(204, 204, 204)" stroke-width="1px"></line><line x1="61.91500186920166" y1="309.2522722591053" x2="56.91500186920166" y2="309.2522722591053" style="visibility: inherit;" fill="rgb(0, 0, 0)" stroke="rgb(204, 204, 204)" stroke-width="1px"></line><line x1="61.91500186920166" y1="274.8909086747603" x2="56.91500186920166" y2="274.8909086747603" style="visibility: inherit;" fill="rgb(0, 0, 0)" stroke="rgb(204, 204, 204)" stroke-width="1px"></line><line x1="61.91500186920166" y1="240.52954509041527" x2="56.91500186920166" y2="240.52954509041527" style="visibility: inherit;" fill="rgb(0, 0, 0)" stroke="rgb(204, 204, 204)" stroke-width="1px"></line><line x1="61.91500186920166" y1="206.1681815060702" x2="56.91500186920166" y2="206.1681815060702" style="visibility: inherit;" fill="rgb(0, 0, 0)" stroke="rgb(204, 204, 204)" stroke-width="1px"></line><line x1="61.91500186920166" y1="171.80681792172516" x2="56.91500186920166" y2="171.80681792172516" style="visibility: inherit;" fill="rgb(0, 0, 0)" stroke="rgb(204, 204, 204)" stroke-width="1px"></line><line x1="61.91500186920166" y1="137.4454543373802" x2="56.91500186920166" y2="137.4454543373802" style="visibility: inherit;" fill="rgb(0, 0, 0)" stroke="rgb(204, 204, 204)" stroke-width="1px"></line><line x1="61.91500186920166" y1="103.0840907530351" x2="56.91500186920166" y2="103.0840907530351" style="visibility: inherit;" fill="rgb(0, 0, 0)" stroke="rgb(204, 204, 204)" stroke-width="1px"></line><line x1="61.91500186920166" y1="68.7227271686901" x2="56.91500186920166" y2="68.7227271686901" style="visibility: inherit;" fill="rgb(0, 0, 0)" stroke="rgb(204, 204, 204)" stroke-width="1px"></line><line x1="61.91500186920166" y1="34.36136358434505" x2="56.91500186920166" y2="34.36136358434505" style="visibility: inherit;" fill="rgb(0, 0, 0)" stroke="rgb(204, 204, 204)" stroke-width="1px"></line><line x1="61.91500186920166" y1="0" x2="56.91500186920166" y2="0" style="visibility: inherit;" fill="rgb(0, 0, 0)" stroke="rgb(204, 204, 204)" stroke-width="1px"></line></g><g transform="translate(51.91500186920166, 0)"><text style="text-anchor: end; visibility: hidden; font-family: Roboto, sans-serif; font-size: 12px; font-weight: 200;" x="0" y="377.9749994277954" dx="0em" dy="0.3em" fill="rgb(50, 49, 63)" stroke="none" stroke-width="1px">-5e-3</text><text style="text-anchor: end; visibility: inherit; font-family: Roboto, sans-serif; font-size: 12px; font-weight: 200;" x="0" y="343.61363584345037" dx="0em" dy="0.3em" fill="rgb(50, 49, 63)" stroke="none" stroke-width="1px">0</text><text style="text-anchor: end; visibility: inherit; font-family: Roboto, sans-serif; font-size: 12px; font-weight: 200;" x="0" y="309.2522722591053" dx="0em" dy="0.3em" fill="rgb(50, 49, 63)" stroke="none" stroke-width="1px">5e-3</text><text style="text-anchor: end; visibility: inherit; font-family: Roboto, sans-serif; font-size: 12px; font-weight: 200;" x="0" y="274.8909086747603" dx="0em" dy="0.3em" fill="rgb(50, 49, 63)" stroke="none" stroke-width="1px">0.01</text><text style="text-anchor: end; visibility: inherit; font-family: Roboto, sans-serif; font-size: 12px; font-weight: 200;" x="0" y="240.52954509041527" dx="0em" dy="0.3em" fill="rgb(50, 49, 63)" stroke="none" stroke-width="1px">0.015</text><text style="text-anchor: end; visibility: inherit; font-family: Roboto, sans-serif; font-size: 12px; font-weight: 200;" x="0" y="206.1681815060702" dx="0em" dy="0.3em" fill="rgb(50, 49, 63)" stroke="none" stroke-width="1px">0.02</text><text style="text-anchor: end; visibility: inherit; font-family: Roboto, sans-serif; font-size: 12px; font-weight: 200;" x="0" y="171.80681792172516" dx="0em" dy="0.3em" fill="rgb(50, 49, 63)" stroke="none" stroke-width="1px">0.025</text><text style="text-anchor: end; visibility: inherit; font-family: Roboto, sans-serif; font-size: 12px; font-weight: 200;" x="0" y="137.4454543373802" dx="0em" dy="0.3em" fill="rgb(50, 49, 63)" stroke="none" stroke-width="1px">0.03</text><text style="text-anchor: end; visibility: inherit; font-family: Roboto, sans-serif; font-size: 12px; font-weight: 200;" x="0" y="103.0840907530351" dx="0em" dy="0.3em" fill="rgb(50, 49, 63)" stroke="none" stroke-width="1px">0.035</text><text style="text-anchor: end; visibility: inherit; font-family: Roboto, sans-serif; font-size: 12px; font-weight: 200;" x="0" y="68.7227271686901" dx="0em" dy="0.3em" fill="rgb(50, 49, 63)" stroke="none" stroke-width="1px">0.04</text><text style="text-anchor: end; visibility: inherit; font-family: Roboto, sans-serif; font-size: 12px; font-weight: 200;" x="0" y="34.36136358434505" dx="0em" dy="0.3em" fill="rgb(50, 49, 63)" stroke="none" stroke-width="1px">0.045</text><text style="text-anchor: end; visibility: hidden; font-family: Roboto, sans-serif; font-size: 12px; font-weight: 200;" x="0" y="0" dx="0em" dy="0.3em" fill="rgb(50, 49, 63)" stroke="none" stroke-width="1px">0.05</text></g><line x1="61.91500186920166" y1="0" x2="61.91500186920166" y2="377.9749994277954" fill="rgb(0, 0, 0)" stroke="rgb(204, 204, 204)" stroke-width="1px"></line></g></g><g transform="translate(61, 0)" clip-path="url(#clip_0)"><clipPath id="clip_0"><rect width="1118" height="377"></rect></clipPath><g><g><g><line x1="0" y1="0" x2="0" y2="377.9749994277954" fill="rgb(0, 0, 0)" stroke="rgb(60, 60, 60)" stroke-width="1px" opacity="0.25"></line><line x1="79.86321415219987" y1="0" x2="79.86321415219987" y2="377.9749994277954" fill="rgb(0, 0, 0)" stroke="rgb(60, 60, 60)" stroke-width="1px" opacity="0.25"></line><line x1="159.72642830439975" y1="0" x2="159.72642830439975" y2="377.9749994277954" fill="rgb(0, 0, 0)" stroke="rgb(60, 60, 60)" stroke-width="1px" opacity="0.25"></line><line x1="239.58964245659962" y1="0" x2="239.58964245659962" y2="377.9749994277954" fill="rgb(0, 0, 0)" stroke="rgb(60, 60, 60)" stroke-width="1px" opacity="0.25"></line><line x1="319.4528566087995" y1="0" x2="319.4528566087995" y2="377.9749994277954" fill="rgb(0, 0, 0)" stroke="rgb(60, 60, 60)" stroke-width="1px" opacity="0.25"></line><line x1="399.3160707609994" y1="0" x2="399.3160707609994" y2="377.9749994277954" fill="rgb(0, 0, 0)" stroke="rgb(60, 60, 60)" stroke-width="1px" opacity="0.25"></line><line x1="479.17928491319924" y1="0" x2="479.17928491319924" y2="377.9749994277954" fill="rgb(0, 0, 0)" stroke="rgb(60, 60, 60)" stroke-width="1px" opacity="0.25"></line><line x1="559.0424990653992" y1="0" x2="559.0424990653992" y2="377.9749994277954" fill="rgb(0, 0, 0)" stroke="rgb(60, 60, 60)" stroke-width="1px" opacity="0.25"></line><line x1="638.905713217599" y1="0" x2="638.905713217599" y2="377.9749994277954" fill="rgb(0, 0, 0)" stroke="rgb(60, 60, 60)" stroke-width="1px" opacity="0.25"></line><line x1="718.768927369799" y1="0" x2="718.768927369799" y2="377.9749994277954" fill="rgb(0, 0, 0)" stroke="rgb(60, 60, 60)" stroke-width="1px" opacity="0.25"></line><line x1="798.6321415219988" y1="0" x2="798.6321415219988" y2="377.9749994277954" fill="rgb(0, 0, 0)" stroke="rgb(60, 60, 60)" stroke-width="1px" opacity="0.25"></line><line x1="878.4953556741987" y1="0" x2="878.4953556741987" y2="377.9749994277954" fill="rgb(0, 0, 0)" stroke="rgb(60, 60, 60)" stroke-width="1px" opacity="0.25"></line><line x1="958.3585698263985" y1="0" x2="958.3585698263985" y2="377.9749994277954" fill="rgb(0, 0, 0)" stroke="rgb(60, 60, 60)" stroke-width="1px" opacity="0.25"></line><line x1="1038.2217839785985" y1="0" x2="1038.2217839785985" y2="377.9749994277954" fill="rgb(0, 0, 0)" stroke="rgb(60, 60, 60)" stroke-width="1px" opacity="0.25"></line><line x1="1118.0849981307983" y1="0" x2="1118.0849981307983" y2="377.9749994277954" fill="rgb(0, 0, 0)" stroke="rgb(60, 60, 60)" stroke-width="1px" opacity="0.25"></line></g><g><line x1="0" y1="377.9749994277954" x2="1118.0849981307983" y2="377.9749994277954" fill="rgb(0, 0, 0)" stroke="rgb(60, 60, 60)" stroke-width="1px" opacity="0.25"></line><line x1="0" y1="343.61363584345037" x2="1118.0849981307983" y2="343.61363584345037" fill="rgb(0, 0, 0)" stroke="rgb(60, 60, 60)" stroke-width="1px" opacity="0.25"></line><line x1="0" y1="309.2522722591053" x2="1118.0849981307983" y2="309.2522722591053" fill="rgb(0, 0, 0)" stroke="rgb(60, 60, 60)" stroke-width="1px" opacity="0.25"></line><line x1="0" y1="274.8909086747603" x2="1118.0849981307983" y2="274.8909086747603" fill="rgb(0, 0, 0)" stroke="rgb(60, 60, 60)" stroke-width="1px" opacity="0.25"></line><line x1="0" y1="240.52954509041527" x2="1118.0849981307983" y2="240.52954509041527" fill="rgb(0, 0, 0)" stroke="rgb(60, 60, 60)" stroke-width="1px" opacity="0.25"></line><line x1="0" y1="206.1681815060702" x2="1118.0849981307983" y2="206.1681815060702" fill="rgb(0, 0, 0)" stroke="rgb(60, 60, 60)" stroke-width="1px" opacity="0.25"></line><line x1="0" y1="171.80681792172516" x2="1118.0849981307983" y2="171.80681792172516" fill="rgb(0, 0, 0)" stroke="rgb(60, 60, 60)" stroke-width="1px" opacity="0.25"></line><line x1="0" y1="137.4454543373802" x2="1118.0849981307983" y2="137.4454543373802" fill="rgb(0, 0, 0)" stroke="rgb(60, 60, 60)" stroke-width="1px" opacity="0.25"></line><line x1="0" y1="103.0840907530351" x2="1118.0849981307983" y2="103.0840907530351" fill="rgb(0, 0, 0)" stroke="rgb(60, 60, 60)" stroke-width="1px" opacity="0.25"></line><line x1="0" y1="68.7227271686901" x2="1118.0849981307983" y2="68.7227271686901" fill="rgb(0, 0, 0)" stroke="rgb(60, 60, 60)" stroke-width="1px" opacity="0.25"></line><line x1="0" y1="34.36136358434505" x2="1118.0849981307983" y2="34.36136358434505" fill="rgb(0, 0, 0)" stroke="rgb(60, 60, 60)" stroke-width="1px" opacity="0.25"></line><line x1="0" y1="0" x2="1118.0849981307983" y2="0" fill="rgb(0, 0, 0)" stroke="rgb(60, 60, 60)" stroke-width="1px" opacity="0.25"></line></g></g></g><g><g><line x1="0" y1="343.61363584345037" x2="1118.0849981307983" y2="343.61363584345037" fill="rgb(0, 0, 0)" stroke="rgb(153, 153, 153)" stroke-width="1.5px"></line></g></g><g><g><line x1="79.86321415219987" y1="0" x2="79.86321415219987" y2="377.9749994277954" fill="rgb(0, 0, 0)" stroke="rgb(153, 153, 153)" stroke-width="1.5px"></line></g></g><g><g><g><g><g><path style="fill: none;" stroke="rgb(255, 112, 67)" stroke-width="2px" d="M81.85979450600489,247.4040485431931L82.25911057676588,246.83135345598473L84.25569093057088,244.31850113425116L85.45363914285387,241.94658888803463L85.85295521361488,240.33933657146451L87.05090342589787,238.30549718361834L87.45021949665886,236.77058934951066L87.84953556741986,235.50482484593198L89.44679985046388,233.27808630961525L94.23859269959586,227.53142722163824L95.83585698263985,222.63430847268893L96.63448912416185,218.9727837720513L97.43312126568387,216.04696313728542L97.83243733644485,213.92710345497704L98.63106947796686,211.92285677759216L101.02696590253285,208.5211372202573L101.42628197329385,206.11413030653335L101.82559804405484,204.30362741387455L102.22491411481585,202.85089361319098L102.62423018557685,201.61276917280426L105.81875875166484,197.93765518882017L106.61739089318685,194.99957903613813L107.01670696394784,192.87022778392296L108.21465517623083,190.4930403369002L108.61397124699184,188.70021173995158L109.01328731775284,187.25799492299504L109.41260338851383,186.02613861625198L111.40918374231883,183.45439767452L113.40576409612383,180.07872148555194L114.60371230840683,176.95373919754772L115.00302837916783,174.71222280233835L117.39892480373382,171.1681587253547L120.59345336982183,166.10951123267282L121.79140158210483,161.97475085283926L122.19071765286583,159.1273672785219L124.98593014819281,154.85325546773808L126.1838783604758,151.18921127511604L126.98251050199781,148.25773505970642L129.77772299732482,143.9331676606541L130.1770390680858,140.97189981096457L131.3749872803688,138.09556197524117L131.7743033511298,136.00323697941488L135.3681479879788,131.44910547868517L136.1667801295008,127.98357174709302L136.5660962002618,125.53772409254942L136.96541227102279,123.70369832451298L139.7606247663498,120.03760119261142L141.7572051201548,116.00531607432914L142.5558372616768,112.85289017153889L142.9551533324378,110.59491745443881L144.55241761548177,107.77402416044553L146.54899796928677,104.24885110438062L146.94831404004776,101.76723009529746L148.14626225233079,99.17868548253018L150.54215867689678,95.42639421926334L150.9414747476578,92.80849204537012L151.74010688917977,90.50470614965012L152.93805510146277,88.0228626048992L153.73668724298477,85.80070164617993L154.13600331374576,84.100877655014L154.93463545526777,82.34792842844548L155.73326759678977,80.56310406063551L156.1325836675508,79.12568202401509L158.92779616287777,75.6975573714702L162.12232472896574,72.90947103525788L162.52164079972675,71.23729510549764L162.92095687048774,70.23475758396789L164.51822115353175,69.637331264791L168.51138186114176,69.29631501813664L168.91069793190275,69.09401961960764L169.70933007342472,68.97755781297927L171.30659435646876,68.91875069258703L172.50454256875173,68.89285694450264L172.90385863951275,68.88064885306653L173.30317471027374,68.87675456046283L174.50112292255676,68.88533434122004L179.29291577168874,68.94338455183791L181.68881219625473,69.01018547035629L182.88676040853773,69.06763388292867L183.68539255005973,69.11420718297639L184.08470862082072,69.14834665603811L184.88334076234273,69.18153878095625L186.48060504538674,69.22808955570727L188.07786932843072,69.28427351688565L188.87650146995273,69.33274043154418L190.8730818237577,69.40046816828456L196.46350681441172,69.56288465024531L198.4600871682167,69.70866962556426L198.8594032389777,69.80611484251465L200.45666752202172,69.905492707672L200.85598359278268,69.97558520177436L202.45324787582672,70.0605790491246L202.8525639465877,70.12256339724466L203.65119608810969,70.18203730006715L204.8491443003927,70.25189413804397L206.84572465419768,70.35279343069882L207.2450407249587,70.42543725879605L207.6443567957197,70.48123021300226L209.6409371495247,70.5772343829806L210.0402532202857,70.64765797137653L210.4395692910467,70.7028151346979L211.6375175033297,70.77525337357191L215.23136214017867,70.94218583673101L216.02999428170068,71.07088554451605L218.4258907062667,71.23615305364741L220.8217871308327,71.42699661553162L221.22110320159368,71.55712973178366L223.61699962615967,71.73109125652465L224.81494783844266,71.8847658630408L226.41221212148668,72.04408676139491L228.00947640453066,72.20841343137947L228.80810854605267,72.341980687433L230.40537282909665,72.49323096440686L230.80468889985767,72.60201462353544L231.20400497061866,72.68541047631604L232.00263711214063,72.77200651712181L233.99921746594566,72.91709110630427L235.99579781975066,73.09974702172605L236.39511389051165,73.22875652931087L236.79442996127267,73.32568059703712L242.78417102268764,73.68847920666693L245.57938351801462,74.05591521561159L247.9752799425806,74.40857123348111L248.37459601334163,74.6425403025124L249.17322815486364,74.82796963459657L249.97186029638561,74.9846540224335L251.56912457942963,75.17071636897768L255.1629692162786,75.4951408012589L255.96160135780062,75.73816126822314L256.3609174285616,75.90829469873816L257.5588656408446,76.08393215614913L259.95476206541065,76.33904075230944L263.1492906314986,76.69714088770569L263.5486067022596,76.93807324210415L264.7465549145426,77.1614024603805L265.14587098530365,77.32185116242812L266.7431352683476,77.52486719254412L268.7397156221526,77.7822710639214L269.1390316929136,77.9641169228743L273.5315084712846,78.38098171448313L274.7294566835676,78.71702849364786L275.1287727543286,78.94748352459825L275.9274048958506,79.14370744411764L276.7260370373726,79.31977159469946L282.3164620280266,79.84425613553852L284.31304238183156,80.31299446615229L285.1116745233536,80.65650984986637L286.30962273563654,80.95672913129167L287.1082548771586,81.20005472908436L289.10483523096354,81.50569923881103L289.5041513017246,81.72129226793471L291.90004772629055,82.04582147667777L292.6986798678126,82.30633411388663L293.09799593857355,82.4956877392165L293.8966280800955,82.6756480125324L294.2959441508566,82.81693647211975L295.4938923631396,83.0021994208204L296.29252450466157,83.18081126046887L298.28910485846654,83.45820593564481L298.68842092922756,83.65896884429903L302.28226556607655,84.09240651274824L303.0808977075986,84.42302605100453L304.6781619906426,84.7635766587045L305.07747806140355,85.00368727565109L305.4767941321645,85.1836158220205L307.0740584152085,85.43592281727096L308.67132269825254,85.73309054965934L309.0706387690135,85.9480623635577L310.26858698129655,86.18759148047884L311.0672191228185,86.4054602978259L311.46653519357955,86.57338526788575L311.8658512643405,86.71143609393246L312.2651673351016,86.8316545979304L312.66448340586254,86.94125563257387L313.06379947662356,87.04457834996387L313.86243161814554,87.18196242619894L314.26174768890655,87.30222122113705L316.2583280427115,87.56484950705108L316.6576441134725,87.76078733298289L318.2549083965165,88.0326638872455L319.4528566087995,88.31244941754349L320.2514887503215,88.55852731472014L322.6473851748875,88.94291357028062L323.44601731640955,89.25315484897105L325.4425976702145,89.6398390212547L327.0398619532585,90.03383350610828L327.43917802401955,90.31094636280478L328.23781016554153,90.55889218001596L333.0296030146735,91.20497855242364L335.8248155100005,91.88838580444455L336.2241315807615,92.3410305705623L337.0227637222835,92.69805379118348L337.4220797930445,92.95511391008591L337.8213958638055,93.15227809183176L338.2207119345665,93.3135763946743L339.0193440760885,93.49664169753153L340.2172922883715,93.73652479003468L341.8145565714155,94.05501394180439L342.21387264217645,94.28995718686237L343.81113692522047,94.60715162911445L345.00908513750346,94.93050242668532L346.6063494205475,95.30306599039308L347.80429763283047,95.66137914317719L348.2036137035915,95.92144564696613L348.60292977435245,96.12265632571712L349.0022458451135,96.28864567380452L349.4015619158745,96.43356366639983L350.2001940573965,96.611429482036L350.5995101281575,96.76372936726939L350.9988261989185,96.9007716181359L352.1967744112015,97.12046523059998L352.59609048196245,97.29827141330422L352.99540655272347,97.45101682154306L353.7940386942455,97.63504347582766L354.5926708357674,97.83816657323901L354.9919869065285,98.00650150919185L357.7871994018555,98.43504436276913L358.98514761413844,98.83375501156925L360.58241189718245,99.26286046170804L361.78036010946545,99.66356762691011L362.5789922509875,99.99989406198985L363.37762439250946,100.29789927352672L364.9748886755534,100.67005298550306L366.5721529585974,101.0879656178027L367.7701011708804,101.48549005940271L368.16941724164144,101.7730873658629L368.56873331240246,101.99480007462968L368.9680493831635,102.17706394865513L371.3639458077294,102.5834782431595L373.75984223229545,103.12712723975754L374.5584743738175,103.55386795357074L374.95779044457845,103.86029556487158L375.3571065153394,104.09461723853977L376.55505472762246,104.38706638519972L377.75300293990546,104.71505764713756L378.1523190106664,104.96285001637429L379.35026722294947,105.26495861496556L379.74958329371043,105.49750811975619L380.14889936447145,105.68841433262564L380.9475315059934,105.90591589002447L381.7461636475154,106.13968186867154L384.14206007208145,106.59149795179154L385.34000828436444,107.01936941709593L385.7393243551254,107.32850309519321L386.93727256740846,107.67164579913825L387.3365886381694,107.93022895398182L387.73590470893043,108.13814806275487L388.5345368504524,108.36866325040845L388.93385292121343,108.55996686952322L391.3297493457794,108.99422143132814L392.92701362882343,109.46918942977784L393.32632969958445,109.80795325266547L394.12496184110637,110.11900288468944L394.9235939826284,110.41370049527274L395.7222261241504,110.6988736265535L396.1215421949114,110.92426231287305L396.5208582656724,111.11384177512198L396.9201743364334,111.28202786728774L397.31949040719445,111.43742913982528L398.5174386194774,111.69457909588937L399.3160707609994,111.95849345451826L400.1147029025214,112.22674294776357L401.3126511148044,112.55307646599903L402.11128325632643,112.85947380794425L402.5105993270874,113.0987234739412L402.9099153978484,113.29774597727534L405.3058118224144,113.75144985046948L405.7051278931754,114.07962618088648L406.5037600346974,114.3886448018247L407.7017082469804,114.74273723263735L409.29897253002434,115.18105681399737L410.4969207423074,115.61415324838799L411.6948689545904,116.04471998317379L412.09418502535135,116.36008928140278L412.8928171668734,116.66358442522655L413.69144930839536,116.9602213290003L414.4900814499174,117.25300954133722L416.48666180372237,117.71683945792637L417.68461001600537,118.16882626297775L418.48324215752734,118.55612495759404L424.4729832189423,119.66759855357961L426.07024750198633,120.57132463326899L426.86887964350836,121.23236014005269L427.2681957142693,121.68847865820923L428.86545999731334,122.2007428140254L429.6640921388354,122.62777160765513L430.06340820959633,122.94391619826213L431.2613564218794,123.31376379383484L432.05998856340136,123.65607996619181L432.85862070492334,123.98213329672814L434.0565689172064,124.35920619680245L434.8552010587283,124.70670751206161L435.2545171294894,124.97593437342573L436.05314927101136,125.25909672289544L437.6504135540553,125.67297367226881L439.24767783709933,126.1662317466291L442.04289033242634,126.8930754513334L442.44220640318736,127.39097275673727L442.8415224739484,127.75156366546695L443.24083854470933,128.02982193861388L444.0394706862313,128.32076868703862L445.2374188985143,128.68174939299905L445.6367349692753,128.96059996143677L446.03605104003634,129.19021340929828L447.23399925231934,129.51526457609066L447.63331532308035,129.77283391410506L448.0326313938413,129.98996535727443L448.43194746460233,130.18289550644292L451.6264760306903,130.80189659822273L452.0257921014514,131.23646056077507L453.2237403137343,131.6869960752904L456.0189528090613,132.40210770159587L457.2169010213443,133.02261541210166L460.41142958743234,133.90779933645925L460.8107456581933,134.50325577450096L461.60937779971533,134.9893805316877L462.0086938704763,135.34556531717655L462.4080099412373,135.62383732206834L463.6059581535203,135.98478602008748L464.00527422428127,136.2661211821845L464.8039063658033,136.56461801376352L465.6025385073253,136.873621776961L466.0018545780863,137.12404599027383L467.5991188611303,137.53491572478322L467.9984349318913,137.84671553299208L469.5956992149353,138.29541931214774L469.9950152856963,138.6301755592531L470.3943313564573,138.89661960979234L470.79364742721833,139.12211730432918L471.9915956395013,139.45460668773748L472.3909117102623,139.71993127144071L472.7902277810233,139.9450030575005L473.9881759933063,140.27798445118026L474.38749206406726,140.54384489242867L477.5820206301553,141.233720962021L479.17928491319924,141.9139708803245L479.9779170547213,142.45556970314246L480.77654919624325,142.9141621973875L481.1758652670043,143.25620341748103L482.3738134792873,143.66236693349626L483.57176169157026,144.10741856668082L483.97107776233133,144.44165784539516L484.3703938330923,144.7094557936069L484.76970990385325,144.93744526618104L485.9676581161363,145.27641171204914L489.1621866822243,146.02090389298317L489.9608188237463,146.60332658114794L490.7594509652683,147.08867142140065L491.5580831067903,147.51595388162443L491.9573991775513,147.84041745845886L493.1553473898343,148.23965439973708L493.95397953135625,148.6157790245517L494.7526116728783,148.9782257084487L496.74919202668326,149.5383147240011L499.54440452201027,150.35579890394104L499.94372059277123,150.91523347280628L501.1416688050543,151.45795168748498L501.94030094657626,151.92182403480496L504.33619737114225,152.6158291840221L504.7355134419032,153.10164739673382L505.53414558342524,153.53209145653605L506.3327777249472,153.92946975210003L507.93004200799123,154.44657103011525L509.52730629103525,155.0361205266623L510.3259384325572,155.5297198801153L512.3225187863623,156.1762013416342L512.7218348571232,156.63426313756906L513.1211509278842,156.97930897584877L515.9163634232112,157.67882697252548L516.3156794939722,158.16902814456998L518.7115759185382,158.8868796093226L520.3088402015823,159.60076548172378L520.7081562723432,160.09997139736615L521.1074723431043,160.4704103008907L524.7013169799533,161.3323864600039L525.4999491214752,161.9920940964438L526.6978973337582,162.60193456078468L528.2951616168021,163.2536507576595L529.0937937583242,163.78777076363787L529.4931098290853,164.17983399333124L531.0903741121292,164.70174405010314L531.4896901828902,165.0866349175379L532.2883223244122,165.46115126910115L532.6876383951732,165.7576980777699L533.0869544659342,166.00749388215496L534.2849026782172,166.37314349032937L534.6842187489782,166.66451361974575L538.6773794565881,167.56075221879823L539.8753276688713,168.3154707606844L541.0732758811542,168.98551791965312L541.4725919519152,169.46000276206843L541.8719080226762,169.8171809360048L543.0698562349592,170.24911861381986L543.4691723057202,170.58087089383957L543.8684883764812,170.85254777687732L549.8582294378962,172.1079012523085L551.0561776501792,173.08024434197807L551.8548097917012,173.8098587111186L552.2541258624622,174.32076487184645L553.0527580039842,174.7736553301606L553.4520740747452,175.1185988277831L554.6500222870282,175.54531548007077L555.8479704993111,176.0213059550868L556.2472865700722,176.3802681902378L556.6466026408332,176.66903396243862L557.0459187115941,176.91569721759575L557.8445508531162,177.21057443775382L558.6431829946382,177.53446708102948L559.4418151361601,177.8758509020505L560.6397633484432,178.30140971463294L561.4383954899652,178.70400828740944L562.2370276314872,179.0928972794506L563.0356597730091,179.47364244692548L563.8342919145313,179.84957812329313L564.6329240560532,180.22270490862917L568.6260847636631,181.18554457117094L570.2233490467072,182.0593263725294L571.8206133297512,182.87995507049757L572.2199294005121,183.446458035262L572.6192454712731,183.860511161315L573.4178776127952,184.25728669327302L574.6158258250781,184.7179750220228L575.8137740373612,185.21715951587072L576.6124061788831,185.6652596401301L577.8103543911661,186.15711650193958L580.2062508157321,186.89859797121176L581.0048829572542,187.49239885598283L581.8035150987761,187.99763235199057L582.2028311695371,188.3752668530154L583.4007793818201,188.82541268776572L583.8000954525811,189.17005091469997L584.1994115233421,189.45138969718684L585.3973597356252,189.8439424295327L588.5918883017132,190.6766530341818L590.5884686555181,191.5498676268665L591.3871007970401,192.22329721353537L593.782997221606,193.07609298985076L595.3802615046501,193.8871151739817L595.779577575411,194.4485813048328L596.1788936461721,194.86032404420035L596.5782097169331,195.18224298916206L597.3768418584551,195.52515631954805L598.9741061414991,196.03053064944112L599.7727382830211,196.48360425490287L600.1720543537822,196.8303882826695L602.967266849109,197.56319135802127L603.7658989906312,198.15285533705486L604.963847202914,198.73166276690407L605.3631632736751,199.15395365245138L606.5611114859581,199.63239354887273L606.9604275567191,199.99448951557423L608.957007910524,200.58695332201808L609.3563239812852,201.01748923594397L609.7556400520461,201.35087353460116L610.953588264329,201.7760872444586L611.7522204058511,202.18135121146085L612.151536476612,202.49958770269046L612.5508525473731,202.76560258821434L612.9501686181342,203.0002845103147L613.3494846888951,203.2161768948454L613.7488007596561,203.42079555683424L616.1446971842221,203.9941019833454L618.5405936087882,204.78864154953865L618.9399096795491,205.3404638812516L620.9364900333541,206.04702975929547L622.5337543163981,206.7713380528988L623.33238645792,207.35609461184382L625.3289668117251,208.08236470356303L626.926231094769,208.8184187217389L629.721443590096,209.785444302577L630.5200757316181,210.51573906950367L631.718023943901,211.17900177572142L632.516656085423,211.7269978559385L632.915972156184,212.13080705194875L634.1139203684671,212.59810673222606L634.5132364392281,212.95347248706156L635.31186858075,213.3166587130589L635.7111846515111,213.60954615484204L636.9091328637941,214.0101647765287L643.6975060667311,215.52372000832503L644.096822137492,216.50668036656444L644.496138208253,217.1712684399432L644.895454279014,217.64482290192123L646.492718562058,218.22807500679403L647.690666774341,218.80226727582036L649.2879310573851,219.44563581232902L649.687247128146,219.90634078661486L650.086563198907,220.25743738308273L651.683827481951,220.76668226346322L652.083143552712,221.14684648092387L652.482459623473,221.44955206014833L653.281091764995,221.78036390396824L654.079723906517,222.12797806363932L654.8783560480391,222.4856275306415L655.676988189561,222.8492469796206L658.871516755649,223.66302569990157L660.8680971094541,224.52308907720385L661.267413180215,225.1134474187714L664.861257817064,226.13582842648302L665.260573887825,226.82341861878876L669.653050666196,228.05066470729696L671.25031494924,229.08274218776734L671.649631020001,229.77587377065083L672.8475792322839,230.41330559934104L673.246895303045,230.86957810776593L674.444843515328,231.3646640808831L675.24347565685,231.80916839894095L675.642791727611,232.14956663541642L676.0421077983721,232.42748586221586L678.8373202936989,233.10941568508676L679.2366363644601,233.5920848957316L679.635952435221,233.95517725807224L680.035268505982,234.24650815070373L681.233216718265,234.6415897451831L682.0318488597869,235.0253950831223L682.431164930548,235.32902063481643L682.8304810013091,235.58451271355256L686.025009567397,236.32355598537768L688.0215899212019,237.13232402834342L688.4209059919631,237.69058158670654L689.618854204246,238.2443778324523L692.414066699573,239.086424330832L693.212698841095,239.73706966778224L697.2058595487049,240.85299518630688L699.2024399025099,241.884305847648L699.6017559732709,242.57536446276833L700.400388114793,243.1344493439919L700.799704185554,243.54208544692474L703.1956006101199,244.21917652542132L703.594916680881,244.69741665727315L705.9908131054469,245.41564385512L706.3901291762079,245.91835572865273L709.983973813057,246.86458038080687L711.581238096101,247.7179990843153L712.3798702376229,248.37269513320453L713.9771345206669,249.05042095806425L717.5709791575159,250.0961753218862L718.3696112990378,250.8652794399814L719.567559511321,251.53896826867484L720.3661916528429,252.08449512970932L720.765507723604,252.48241426569632L722.3627720066479,253.0032270881649L722.762088077409,253.38613859253618L723.9600362896919,253.82695467826355L725.9566166434969,254.4425009338993L726.7552487850189,254.95199531685168L728.352513068063,255.53757462445353L729.1511452095849,256.02864081739517L729.5504612803459,256.3930822346259L729.9497773511068,256.681515504856L730.748409492629,256.9939919810862L731.5470416341509,257.32074077365115L733.5436219879558,257.8642650439873L734.7415702002389,258.3984048053199L735.5402023417608,258.85736817189337L736.7381505540438,259.34016720239157L737.936098766327,259.83690921429223L739.5333630493709,260.41046697256576L740.7313112616539,260.96080658056707L742.3285755446979,261.5653657217692L742.7278916154588,261.99658188547477L743.1272076862199,262.3237538608662L745.922420181547,262.99796252997123L746.7210523230689,263.5386452113813L747.12036839383,263.93106699705265L747.5196844645909,264.2344887232221L748.7176326768738,264.6201891509941L749.116948747635,264.9194039741901L751.5128451722009,265.5047786237125L751.9121612429618,265.9234805249438L752.3114773137229,266.2421429355051L753.5094255260059,266.63537745774784L755.10668980905,267.1400668823119L756.3046380213328,267.6439575675483L756.7039540920939,268.0132237844162L757.1032701628549,268.30167435832556L757.5025862336158,268.5415792237959L758.301218375138,268.81906573939426L759.4991665874209,269.1855107860936L760.6971147997039,269.60490597135276L762.2943790827479,270.12192267437484L762.6936951535089,270.49835278825174L764.6902755073139,271.05459192287003L765.4889076488358,271.5201432378595L765.8882237195969,271.86530754063244L766.2875397903579,272.1381884336538L769.8813844272069,272.8917048651269L771.4786487102508,273.60463986046176L771.8779647810119,274.0974765755999L772.2772808517728,274.4582031201982L772.6765969225338,274.739614920172L773.475229064056,275.03825501907846L775.4718094178609,275.5410179029836L775.8711254886218,275.90723420680405L776.6697576301439,276.2559224085438L777.0690737009048,276.52953517555767L777.4683897716659,276.75805147931425L778.6663379839488,277.0878871770768L779.4649701254709,277.4140071401873L779.8642861962319,277.67370774646594L780.2636022669928,277.8935029761024L783.8574469038418,278.5987320321594L785.0553951161248,279.21200197864005L788.6492397529739,280.1473635832738L791.0451361775398,281.08433207826874L791.4444522483008,281.70893916787685L793.8403486728668,282.4570458799126L794.2396647436278,282.9679339607343L794.6389808143889,283.33643454016357L795.4376129559108,283.6812885810967L796.2362450974329,284.0117217279129L797.8335093804768,284.4563267075795L800.2294058050428,285.0908434093151L800.6287218758039,285.53263535939635L803.8232504418919,286.284212899929L804.2225665126529,286.7957011677389L805.4205147249357,287.28385326158013L806.6184629372187,287.75745322500626L808.2157272202628,288.2816987985785L809.0143593617847,288.71591644286184L810.6116236448288,289.21505543508056L813.0075200693948,289.87055694927983L814.6047843524387,290.4999394239343L815.0041004231998,290.9364299327229L816.2020486354828,291.37452969212353L817.0006807770048,291.75453684857166L818.1986289892877,292.1577801508572L819.7958932723318,292.6324846611912L820.5945254138537,293.03329237322527L821.3931575553758,293.3894983138074L821.7924736261367,293.6609858902664L822.1917896968978,293.8815746050427L824.9870021922248,294.4159679695159L825.7856343337468,294.8508749929651L826.1849504045077,295.1688548646948L828.5808468290738,295.7004614677009L828.9801628998348,296.07599002488456L829.3794789705958,296.35780519142645L830.1781111121178,296.6396893863096L830.9767432536398,296.9213449054227L835.7685361027718,297.75972795754177L839.3623807396207,298.7582756257088L840.9596450226647,299.57580687657025L842.9562253764697,300.33773942435823L843.3555414472308,300.84897255059235L845.3521218010358,301.42498980255596L845.7514378717967,301.82423981077096L846.1507539425577,302.1173616295281L847.7480182256018,302.50680002194775L848.1473342963627,302.7936713340332L850.5432307209287,303.2835217890989L851.3418628624507,303.6827567237615L852.1404950039727,304.027330492378L852.5398110747337,304.28648299234146L852.9391271454948,304.494307207541L853.7377592870167,304.72344443656897L854.1370753577777,304.91304059885414L856.1336557115827,305.2862473675914L857.3316039238657,305.66495506975684L858.1302360653876,305.9949941539524L859.3281842776707,306.3466709519325L860.5261324899537,306.7106557862767L861.7240807022367,307.08134957047207L862.5227128437588,307.40491878529934L864.9186092683248,307.90070018109293L865.3179253390857,308.248175863782L866.1165574806078,308.5564445529235L866.9151896221297,308.84089079182957L870.5090342589788,309.45537984693766L870.9083503297397,309.8730010341768L871.3076664005007,310.1724195768199L871.7069824712618,310.4008422891937L877.2974074619158,311.2124507015643L878.8946717449596,311.8892986500271L880.4919360280037,312.48401537984336L880.8912520987647,312.8877980384879L882.0892003110476,313.2704429131143L882.4885163818086,313.5466637235696L883.6864645940917,313.85180760369275L884.4850967356136,314.1274320686154L885.2837288771357,314.3850197490396L887.2803092309407,314.76869423425114L888.4782574432236,315.13539050112706L889.2768895847457,315.4459968658929L889.6762056555067,315.67753018116946L890.4748377970286,315.90654595166615L891.6727860093116,316.1784782565965L892.8707342215947,316.4754225272834L893.6693663631166,316.74236512860546L894.8673145753997,317.03507391839963L896.0652627876826,317.3425044663735L896.4645788584437,317.5707267850976L897.6625270707266,317.8384567627207L898.8604752830097,318.12913738002277L902.0550038490977,318.6466262973535L902.4543199198587,318.99962853832835L903.2529520613806,319.296184611624L905.2495324151856,319.6845282075259L907.2461127689907,320.1258245367305L907.6454288397517,320.4320033324287L908.0447449105127,320.65702328384555L908.8433770520346,320.8744077907341L909.2426931227956,321.04589579678657L910.0413252643177,321.2306433519664L910.8399574058396,321.42300614051794L912.0379056181226,321.6600449260579L912.4372216888836,321.84263362657725L914.0344859719277,322.1127934832268L916.0310663257326,322.4736956003094L916.8296984672546,322.76914940294677L919.2255948918207,323.1810516620072L919.6249109625817,323.46699229256313L920.0242270333426,323.6772676218389L920.4235431041036,323.8420580062901L920.8228591748647,323.97946589951766L922.0208073871476,324.17698743833193L922.8194395286697,324.37177468922715L924.0173877409526,324.6023970598881L924.4167038117135,324.77851114733454L925.6146520239967,324.9968735699774L926.4132841655187,325.2025697557017L927.2119163070406,325.4003122625343L927.6112323778016,325.5559841579002L928.0105484485625,325.68632472217814L929.6078127316066,325.9113923270519L931.2050770146506,326.191858008262L931.6043930854116,326.39626904593393L932.0037091561726,326.5549589733056L933.6009734392165,326.79344114599775L934.0002895099776,326.9721212529791L934.7989216514997,327.1502497915492L935.1982377222606,327.29244570519177L935.9968698637826,327.44813266169433L936.3961859345436,327.57659161323085L936.7955020053046,327.6886254376101L937.5941341468266,327.8254880661657L937.9934502175877,327.94229208389083L938.7920823591096,328.0814721626925L939.9900305713926,328.2679386796809L940.7886627129146,328.44800549496347L941.1879787836756,328.58999855003304L943.5838752082417,328.8770023281433L943.9831912790027,329.0825245709705L944.3825073497636,329.23905932796595L945.9797716328076,329.4649435437378L946.7784037743296,329.6659018077877L947.5770359158516,329.8515371234284L949.1743001988956,330.091925694576L951.9695126942225,330.4583459862243L953.1674609065057,330.77202723912075L953.9660930480276,331.0223278876677L954.7647251895496,331.2342196756083L955.1640412603106,331.3920698011266L956.7613055433546,331.6087056432561L957.5599376848766,331.79908456519775L957.9592537556375,331.94337158011814L958.3585698263985,332.0599080863152L959.5565180386816,332.2191599751438L959.9558341094425,332.34429874787065L961.1537823217255,332.5075810631265L961.5530983924865,332.6347614338947L962.7510466047696,332.7981348943484L963.9489948170525,332.98237552847274L965.5462591000966,333.2065419230168L967.9421555246627,333.50862184590994L968.3414715954236,333.71746502483876L969.5394198077065,333.9249898609692L969.9387358784676,334.0767198098589L970.7373680199896,334.221899539978L971.5360001615115,334.36276608071694L971.9353162322726,334.4740226297434L972.7339483737945,334.59396467483924L973.1332644445555,334.69237819284234L973.9318965860776,334.80403455189776L974.3312126568386,334.897188324639L974.7305287275996,334.97914230094494L975.1298447983605,335.0542845550458L975.9284769398826,335.1510145901853L976.7271090814045,335.26031423583026L977.1264251521656,335.3513787485883L978.7236894352095,335.5069934321829L979.1230055059705,335.62536566494623L979.9216376474926,335.746103675998L981.1195858597755,335.89239253538364L981.9182180012975,336.0289137566829L983.1161662135806,336.18322095356024L985.5120626381465,336.41795983528243L987.9079590627125,336.6974510020512L989.5052233457566,336.95562246146267L990.7031715580396,337.17735553802993L992.6997519118446,337.419822639637L993.4983840533665,337.6083850982937L994.6963322656495,337.78541007522495L997.0922286902155,338.0167359388509L997.4915447609765,338.1760386669721L998.2901769024986,338.31233966978056L999.4881251147815,338.4544556051932L1000.6860733270645,338.5991724581659L1001.0853893978255,338.7056183777338L1001.4847054685865,338.7890066927634L1005.0785501054355,339.0102474595296L1005.4778661761965,339.1615166357673L1005.8771822469575,339.27070445303366L1006.2764983177185,339.35454505026286L1007.0751304592404,339.4412072882475L1007.8737626007626,339.52916265177294L1009.0717108130455,339.6351241455758L1011.0682911668505,339.7853568204838L1011.8669233083725,339.90946203192647L1012.2662393791335,340.00075555483255L1012.6655554498944,340.07226381996986L1013.0648715206554,340.13179932564026L1016.2594000867434,340.2969702717237L1019.8532447235925,340.53402936441165L1021.8498250773974,340.7493933188403L1025.0443536434855,340.99037553767977L1025.4436697142464,341.14848230832837L1026.6416179265295,341.283289139922L1028.2388822095734,341.41602121117234L1029.4368304218565,341.5334830428472L1030.2354625633784,341.6286684304994L1031.0340947049006,341.7100880928256L1032.2320429171834,341.7946357385558L878.8946717449596,330.23860967222197L879.2939878157207,323.3522641081915L879.6933038864818,319.26765132197096L880.4919360280037,316.91102698300966L883.6864645940917,315.87042555935676L884.4850967356136,315.33860284201376L885.2837288771357,315.1117222130786L886.0823610186577,315.0674829818705L888.0789413724626,315.2692484816572L890.0755217262677,315.61656872317025L891.6727860093116,316.004491919499L893.2700502923557,316.4154597064172L893.6693663631166,316.7063874360858L894.0686824338776,316.9252092075296L895.6659467169217,317.2327269254315L896.8638949292047,317.548541686567L898.0618431414878,317.8685749577098L901.2563717075757,318.405025931219L902.0550038490977,318.81215942807125L903.6522681321416,319.22595666396757L904.0515842029027,319.5164027599467L904.4509002736637,319.7327530479493L904.8502163444247,319.9045575269885L905.6488484859467,320.0913856153839L906.4474806274686,320.28688097298556L907.6454288397517,320.5286371941817L908.8433770520346,320.7973761369358L909.2426931227956,320.9996768045076L910.0413252643177,321.202911956599L910.8399574058396,321.4063673032975L913.6351699011667,321.81101259634994L915.2324341842107,322.2133676393879L916.0310663257326,322.534040094006L916.8296984672546,322.8053560991648L917.6283306087767,323.0467042979075L918.0276466795376,323.23066322886194L918.8262788210595,323.4190755584103L920.0242270333426,323.6485175813473L920.8228591748647,323.86334164455195L922.0208073871476,324.1073128853525L922.8194395286697,324.32996995743946L924.0173877409526,324.57731422081554L924.4167038117135,324.763461443891L924.8160198824746,324.9128085189113L928.8091805900847,325.3740298603993L929.2084966608456,325.6874319196666L930.0071288023676,325.948546051413L930.4064448731286,326.1416149721211L930.8057609438896,326.2937710021497L931.2050770146506,326.42128521332063L932.4030252269337,326.6059198141469L932.8023412976946,326.75256403090464L933.6009734392165,326.9120041805571L934.7989216514997,327.114179548096L935.5975537930216,327.30603402544284L936.3961859345436,327.4913324314799L937.1948180760655,327.67233685768804L940.7886627129146,328.0906444017677L941.1879787836756,328.37558189411556L942.3859269959586,328.647861181584L943.1845591374805,328.87831416705643L943.9831912790027,329.0833116743184L944.7818234205246,329.27265827679355L945.5804555620466,329.4522482390811L945.9797716328076,329.59285689040684L947.1777198450907,329.7752260765741L949.5736162696567,330.0781581808966L949.9729323404176,330.29184471357917L951.5701966234616,330.54683542954484L952.7681448357446,330.79393735020005L953.9660930480276,331.0354739543153L954.7647251895496,331.24210731559685L955.1640412603106,331.39680238511966L956.7613055433546,331.611545193652L958.3585698263985,331.86081225443553L959.5565180386816,332.099702476016L959.9558341094425,332.272624248394L960.3551501802035,332.4058731069066L960.7544662509646,332.51521997245305L961.9524144632476,332.6684603965948L963.5496787462915,332.87593043519337L964.3483108878136,333.057601723278L965.9455751708575,333.27984633221666L966.3448912416186,333.4412667454012L967.1435233831405,333.59397795531703L967.5428394539015,333.7133899954503L969.5394198077065,333.9225448433361L970.7373680199896,334.1293945600643L971.1366840907506,334.28043110367514L971.9353162322726,334.4246216435183L972.7339483737945,334.5643240831042L973.5325805153165,334.7009438841001L973.9318965860776,334.8091739666524L975.1298447983605,334.95230355447023L975.5291608691216,335.0640494106649L976.3277930106435,335.1825518380851L977.5257412229266,335.33011131083197L977.9250572936876,335.4439384307089L978.7236894352095,335.56252924145537L981.1195858597755,335.7822478746581L982.3175340720585,335.987053706119L983.5154822843416,336.1820398152892L983.9147983551026,336.3228713283633L985.5120626381465,336.5017500601643L987.9079590627125,336.7477251369803L990.7031715580396,337.0526171433405L993.0990679826056,337.3665715040724L994.6963322656495,337.64032191869217L995.4949644071716,337.8466712786587L997.4915447609765,338.07399987085677L998.2901769024986,338.2511163921113L998.6894929732596,338.3775986208618L999.4881251147815,338.493610975842L1001.0853893978255,338.64228148833945L1003.0819697516305,338.82809172517887L1004.6792340346746,339.01507231800275L1006.2764983177185,339.20116576924426L1007.4744465300015,339.3672061722476L1009.8703429545675,339.5729120714769L1010.2696590253286,339.71366747077303L1011.0682911668505,339.83248281560213L1013.4641875914166,340.00446302496084L1015.0614518744604,340.172777350901L1017.4573482990265,340.36844698466837L1017.8566643697875,340.5012766946357L1018.2559804405485,340.5963041256724L1019.4539286528316,340.6987031307884L1019.8532447235925,340.7750690798505L1021.8498250773974,340.8940171481036L1022.6484572189195,340.9939314991949L1024.2457215019635,341.1097620329408L1024.6450375727245,341.19297772198945L1025.0443536434855,341.2565261795693L1025.4436697142464,341.30817269346204L1025.8429857850074,341.352576436337L1026.2423018557683,341.3925329117955L1026.6416179265295,341.4297195020023L1027.4402500680515,341.4781586118829L1029.8361464926174,341.58316878992247L1031.0340947049006,341.6827883084794L1033.4299911294665,341.8130440333512L1035.0272554125104,341.9361573147754L1038.6211000493595,342.10525358771764L1039.0204161201204,342.2167847079304L1039.4197321908814,342.29367517170175L1039.8190482616426,342.3496796368025L1041.8156286154474,342.4311061778256L1042.6142607569695,342.49837861349965L1044.6108411107743,342.5830006082346L1045.8087893230575,342.65910796332514L1046.6074214645794,342.7211505710318L1047.0067375353403,342.7664112356982L1047.4060536061015,342.8015044098899L1047.8053696768625,342.83039224483787L1049.4026339599066,342.8780334993341L1052.5971625259945,342.9623395875275L1052.9964785967554,343.0194280081046L1054.1944268090383,343.0725825344487L1054.9930589505605,343.1165672221787L1055.3923750213214,343.14884999349323L1056.1910071628433,343.17969554906625L1058.1875875166484,343.2251066849003L1060.1841678704534,343.2766978578412L1060.9828000119755,343.316670748146L1061.7814321534975,343.3492663196497L1062.9793803657803,343.3809746072647L1063.7780125073025,343.40758573364195L1065.7745928611073,343.4407269317851L1066.9725410733904,343.46968553734575L1068.1704892856735,343.495213763804L1071.7643339225224,343.5294551147618L1072.1636499932833,343.55158924800793L1073.3615982055665,343.56902162995635L1074.5595464178493,343.58271213663573L1075.3581785593713,343.5925681950134L1075.7574946301324,343.59915032884606L1077.7540749839375,343.6048921034091" fill="none"></path></g></g></g></g><g opacity="0.2"><g><g><g><path style="fill: none;" stroke="rgb(255, 112, 67)" stroke-width="2px" d="M81.85979450600489,247.4040485431931L82.25911057676588,246.48773640365968L84.25569093057088,241.90616290538702L85.45363914285387,239.15722008648396L85.85295521361488,238.24090794695047L87.05090342589787,235.49196512804744L87.45021949665886,234.57564658821127L87.84953556741986,233.65932804837513L89.44679985046388,229.99407949024132L94.23859269959586,218.9983082146291L95.83585698263985,215.33304685588988L96.63448912416185,213.50042257682298L97.43312126568387,211.66778549715062L97.83243733644485,210.75146695731448L98.63106947796686,208.9188426782476L101.02696590253285,203.42095704044146L101.42628197329385,202.50463850060532L101.82559804405484,201.58833276137457L102.22491411481585,200.67201422153843L102.62423018557685,199.75569568170224L105.81875875166484,192.42518576482922L106.61739089318685,190.59256148576233L107.01670696394784,189.67624294592616L108.21465517623083,186.92728732641768L108.61397124699184,186.01098158718693L109.01328731775284,185.0946758479562L109.41260338851383,184.17835730812004L111.40918374231883,179.5967902101501L113.40576409612383,175.01521031157472L114.60371230840683,172.26626749267163L115.00302837916783,171.3499489528355L117.39892480373382,165.85206331502937L120.59345336982183,158.52154059755094L121.79140158210483,155.77261057925332L122.19071765286583,154.85629203941713L124.98593014819281,148.44208786177487L126.1838783604758,145.69314504287183L126.98251050199781,143.8605207638049L129.77772299732482,137.44631658616262L130.1770390680858,136.52999804632648L131.3749872803688,133.7810552274234L131.7743033511298,132.86474948819267L135.3681479879788,124.61790823087807L136.1667801295008,122.78527115120573L136.5660962002618,121.86895261136954L136.96541227102279,120.95265967274428L139.7606247663498,114.53845549510197L141.7572051201548,109.95688839713202L142.5558372616768,108.12425131745968L142.9551533324378,107.20795837883442L144.55241761548177,103.54268421948973L146.54899796928677,98.96109152030893L146.94831404004776,98.04479858168362L148.14626225233079,95.29586856338602L150.54215867689678,89.79795732436902L150.9414747476578,88.88163878453284L151.74010688917977,87.04902730607138L152.93805510146277,84.30009728777377L153.73668724298477,82.46746020810143L154.13600331374576,81.55114166826527L154.93463545526777,79.71850458859294L155.73326759678977,77.88586750892063L156.1325836675508,76.96954896908443L158.92779616287777,70.55537039265303L162.12232472896574,68.72734153093921L162.52164079972675,68.72903121085733L162.92095687048774,68.73095130167334L164.51822115353175,68.74119178602555L168.51138186114176,68.78479064815514L168.91069793190275,68.79057652181415L169.70933007342472,68.80286510303677L171.30659435646876,68.83054001199865L172.50454256875173,68.85401632237608L172.90385863951275,68.86233671591226L173.30317471027374,68.87091312155724L174.50112292255676,68.89820401235589L179.29291577168874,69.03045986776475L181.68881219625473,69.11038684813377L182.88676040853773,69.15380650178717L183.68539255005973,69.18406713304796L184.08470862082072,69.19955586563069L184.88334076234273,69.23132696833346L186.48060504538674,69.29791571783373L188.07786932843072,69.36854945865312L188.87650146995273,69.40544080353197L190.8730818237577,69.50205977339513L196.46350681441172,69.80650937318647L198.4600871682167,69.92734708854258L198.8594032389777,69.95228266794022L200.45666752202172,70.05455950540798L200.85598359278268,70.08072394292788L202.45324787582672,70.18806982014999L202.8525639465877,70.21553991942481L203.65119608810969,70.27124815430084L204.8491443003927,70.35667939500918L206.84572465419768,70.50414236968108L207.2450407249587,70.53440300094186L207.6443567957197,70.56491964431146L209.6409371495247,70.72124063794803L210.0402532202857,70.75329335397048L210.4395692910467,70.78555087967996L211.6375175033297,70.88391073188296L215.23136214017867,71.1925845314696L216.02999428170068,71.26393510619364L218.4258907062667,71.48405431734452L220.8217871308327,71.71326195835795L221.22110320159368,71.75232940616166L223.61699962615967,71.9920335436361L224.81494783844266,72.11527777281502L226.41221212148668,72.28306810892605L228.00947640453066,72.45490343635622L228.80810854605267,72.54233157151324L230.40537282909665,72.72010637986767L230.80468889985767,72.76519011222831L231.20400497061866,72.81050425548685L232.00263711214063,72.90190057833037L233.99921746594566,73.13471799007799L235.99579781975066,73.37373089485865L236.39511389051165,73.42227079068819L236.79442996127267,73.47106669862646L242.78417102268764,74.23267712111155L245.57938351801462,74.60706922902851L247.9752799425806,74.93755526028536L248.37459601334163,74.99349390605934L249.17322815486364,75.10611363272281L249.97186029638561,75.2196806041889L251.56912457942963,75.44980988879402L255.1629692162786,75.98177744968069L255.96160135780062,76.10269196866949L256.3609174285616,76.16349484451077L257.5588656408446,76.34738834226566L259.95476206541065,76.72170364654995L263.1492906314986,77.23429109080007L263.5486067022596,77.29947177370191L264.7465549145426,77.49639628779502L265.14587098530365,77.56252421549944L266.7431352683476,77.82939123771816L268.7397156221526,78.16837687098732L269.1390316929136,78.23688571130366L273.5315084712846,79.0062789018964L274.7294566835676,79.22109866239501L275.1287727543286,79.2931660710237L275.9274048958506,79.43804332339666L276.7260370373726,79.58386782057218L282.3164620280266,80.63098294679703L284.31304238183156,81.01610196207295L285.1116745233536,81.17178292543747L286.30962273563654,81.40705805342961L287.1082548771586,81.5650431257734L289.10483523096354,81.96416600340099L289.5041513017246,82.04468181162026L291.90004772629055,82.53261528979242L292.6986798678126,82.69710306969984L293.09799593857355,82.77971817721136L293.8966280800955,82.94558842250636L294.2959441508566,83.02886916150072L295.4938923631396,83.28009384387143L296.29252450466157,83.44872901994151L298.28910485846654,83.87429794840868L298.68842092922756,83.96011320728026L302.28226556607655,84.7425630154221L303.0808977075986,84.91895535838898L304.6781619906426,85.27440257025437L305.07747806140355,85.36385320107094L305.4767941321645,85.4535086415746L307.0740584152085,85.81438331014665L308.67132269825254,86.17884214824194L309.0706387690135,86.27052008440515L310.26858698129655,86.54688515586056L311.0672191228185,86.73226352384651L311.46653519357955,86.82527272297548L311.8658512643405,86.91851233300241L312.2651673351016,87.01198235392724L312.66448340586254,87.10565718453913L313.06379947662356,87.19956242604894L313.86243161814554,87.38803854055148L314.26174768890655,87.48260941354415L316.2583280427115,87.95879193592214L316.6576441134725,88.05469407188062L318.2549083965165,88.44047871863943L319.4528566087995,88.7321277129905L320.2514887503215,88.92764416048519L322.6473851748875,89.51949295362141L323.44601731640955,89.71851676700672L325.4425976702145,90.21986527968025L327.0398619532585,90.62482523338858L327.43917802401955,90.72661564784958L328.23781016554153,90.93081090583274L333.0296030146735,92.17410811103512L335.8248155100005,92.91349668247591L336.2241315807615,93.01999771973895L337.0227637222835,93.23358862211526L337.4220797930445,93.34070408843942L337.8213958638055,93.44802436445063L338.2207119345665,93.55552384893802L339.0193440760885,93.77123965181742L340.2172922883715,94.09634942878937L341.8145565714155,94.53274766945896L342.21387264217645,94.64237205444944L343.81113692522047,95.08294329249259L345.00908513750346,95.41552862304164L346.6063494205475,95.86191133595469L347.80429763283047,96.19884887235342L348.2036137035915,96.31154540264956L348.60292977435245,96.4244723438436L349.0022458451135,96.53762969593556L349.4015619158745,96.6509406552928L350.2001940573965,96.87822820549022L350.5995101281575,96.9921791951195L350.9988261989185,97.1063349944358L352.1967744112015,97.45000564929612L352.59609048196245,97.56498068736063L352.99540655272347,97.68013493390127L353.7940386942455,97.9110834572546L354.5926708357674,98.1428512193561L354.9919869065285,98.25900391312109L357.7871994018555,99.07785864313503L358.98514761413844,99.43182098476936L360.58241189718245,99.90651863691625L361.78036010946545,100.2646283747132L362.5789922509875,100.50438371460942L363.37762439250946,100.74490709083206L364.9748886755534,101.22828355346746L366.5721529585974,101.7148345662521L367.7701011708804,102.08177672180283L368.16941724164144,102.20448332555321L368.56873331240246,102.32736913777981L368.9680493831635,102.4504597596934L371.3639458077294,103.193099684916L373.75984223229545,103.9426007346546L374.5584743738175,104.1939790242906L374.95779044457845,104.31993698182282L375.3571065153394,104.4460997490421L376.55505472762246,104.8257401051896L377.75300293990546,105.20704454004431L378.1523190106664,105.3345385702294L379.35026722294947,105.71812151285248L379.74958329371043,105.84633237694219L380.14889936447145,105.97477365192985L380.9475315059934,106.23216822612277L381.7461636475154,106.49033083664207L384.14206007208145,107.26922207647155L385.34000828436444,107.66117661505254L385.7393243551254,107.79220361233915L386.93727256740846,108.18635985505587L387.3365886381694,108.31810368624714L387.73590470893043,108.45002672591454L388.5345368504524,108.71443603188871L388.93385292121343,108.84692229819548L391.3297493457794,109.6456032740356L392.92701362882343,110.18164142745226L393.32632969958445,110.31609898699683L394.12496184110637,110.58557733272536L394.9235939826284,110.85574691114769L395.7222261241504,111.12663332347465L396.1215421949114,111.26234534235236L396.5208582656724,111.39821096849536L396.9201743364334,111.53430700553628L397.31949040719445,111.67053104863163L398.5174386194774,112.08030402998551L399.3160707609994,112.35436499246163L400.1147029025214,112.62911718763155L401.3126511148044,113.04257674335224L402.11128325632643,113.31906982086201L402.5105993270874,113.4575979729366L402.9099153978484,113.59627973227646L405.3058118224144,114.4320056602607L405.7051278931754,114.57189067651198L406.5037600346974,114.85217273323207L407.7017082469804,115.27387587885627L409.29897253002434,115.83853618603739L410.4969207423074,116.263797899974L411.6948689545904,116.69057008535253L412.09418502535135,116.83314322874622L412.8928171668734,117.11882714096217L413.69144930839536,117.40517668466096L414.4900814499174,117.69219185984267L416.48666180372237,118.41258433281006L417.68461001600537,118.84680647055487L418.48324215752734,119.13707299951837L424.4729832189423,121.33480894755805L426.07024750198633,121.9269137528031L426.86887964350836,122.22391340022821L427.2681957142693,122.3726564354441L428.86545999731334,122.96913904774974L429.6640921388354,123.26831479809968L430.06340820959633,123.41813308417258L431.2613564218794,123.86853518719388L432.05998856340136,124.16955422472724L432.85862070492334,124.47121329253257L434.0565689172064,124.92481554691393L434.8552010587283,125.22795948495036L435.2545171294894,125.37977466547196L436.05314927101136,125.68384024710006L437.6504135540553,126.29378909632888L439.24767783709933,126.90611885816955L442.04289033242634,127.98334100838986L442.44220640318736,128.137818714843L442.8415224739484,128.29245002856146L443.24083854470933,128.44720934833433L444.0394706862313,128.75718880967588L445.2374188985143,129.2232204519397L445.6367349692753,129.37887581409336L446.03605104003634,129.53463358109053L447.23399925231934,130.00284132627925L447.63331532308035,130.1591879211267L448.0326313938413,130.3156625220285L448.43194746460233,130.47229073019565L451.6264760306903,131.7303982358924L452.0257921014514,131.88830650460358L453.2237403137343,132.36279934706343L456.0189528090613,133.47477514105412L457.2169010213443,133.9533769778603L460.41142958743234,135.23557522299566L460.8107456581933,135.3964404315635L461.60937779971533,135.71856766746782L462.0086938704763,135.8798424954098L462.4080099412373,136.04124532940614L463.6059581535203,136.52620906711616L464.00527422428127,136.6881239253301L464.8039063658033,137.0123632611321L465.6025385073253,137.33712742175712L466.0018545780863,137.49968231024312L467.5991188611303,138.15122032654733L467.9984349318913,138.3144152453053L469.5956992149353,138.96847498088127L469.9950152856963,139.13230992991123L470.3943313564573,139.2962856856011L470.79364742721833,139.4603638461344L471.9915956395013,139.95334076285005L472.3909117102623,140.11791814699558L472.7902277810233,140.28261073659007L473.9881759933063,140.77745654169996L474.38749206406726,140.94263555430118L477.5820206301553,142.2685350664096L479.17928491319924,142.9343457577797L479.9779170547213,143.26796793736946L480.77654919624325,143.60205093875499L481.1758652670043,143.76926524762123L482.3738134792873,144.27161220751913L483.57176169157026,144.77499601645766L483.97107776233133,144.94301676346663L484.3703938330923,145.11115271592456L484.76970990385325,145.27942947504235L485.9676581161363,145.7848613808513L489.1621866822243,147.13764216438432L489.9608188237463,147.47696061339497L490.7594509652683,147.81668868177965L491.5580831067903,148.15687757196022L491.9573991775513,148.32711282371037L493.1553473898343,148.83850981165452L493.95397953135625,149.17996596177366L494.7526116728783,149.52189573429413L496.74919202668326,150.3784482473297L499.54440452201027,151.58202517385092L499.94372059277123,151.75438532610414L501.1416688050543,152.27202900950314L501.94030094657626,152.61763255578492L504.33619737114225,153.6568369078477L504.7355134419032,153.83037471580138L505.53414558342524,154.17775754623938L506.3327777249472,154.52553719544602L507.93004200799123,155.2222229471381L509.52730629103525,155.92044477148298L510.3259384325572,156.2701189102948L512.3225187863623,157.1459235339125L512.7218348571232,157.32135583147138L513.1211509278842,157.49687773326832L515.9163634232112,158.72810396754053L516.3156794939722,158.90432990263673L518.7115759185382,159.96365680645155L520.3088402015823,160.67159429032563L520.7081562723432,160.8487802708298L521.1074723431043,161.0260686561775L524.7013169799533,162.62535069867374L525.4999491214752,162.98165555110364L526.6978973337582,163.5166952572959L528.2951616168021,164.23122505297172L529.0937937583242,164.58895077260544L529.4931098290853,164.76792883787127L531.0903741121292,165.484609135261L531.4896901828902,165.66397121869005L532.2883223244122,166.02292579644606L532.6876383951732,166.20251829077304L533.0869544659342,166.38218758873265L534.2849026782172,166.92161790259098L534.6842187489782,167.10156881387027L538.6773794565881,168.90511011737686L539.8753276688713,169.4475485735137L541.0732758811542,169.9905886581062L541.4725919519152,170.17173002569143L541.8719080226762,170.35294819690932L543.0698562349592,170.8970251305425L543.4691723057202,171.07849931386914L543.8684883764812,171.2600631014339L549.8582294378962,173.99093146545533L551.0561776501792,174.53875897648246L551.8548097917012,174.9042802648293L552.2541258624622,175.08712411293814L553.0527580039842,175.45299101763186L553.4520740747452,175.63601407421686L554.6500222870282,176.18539045850227L555.8479704993111,176.73529166761077L556.2472865700722,176.91871154296436L556.6466026408332,177.10218262073974L557.0459187115941,177.28569210033143L557.8445508531162,177.65289026799095L558.6431829946382,178.020306045943L559.4418151361601,178.38792663358205L560.6397633484432,178.93974793350657L561.4383954899652,179.3079061465741L562.2370276314872,179.67623076751238L563.0356597730091,180.04476019813774L563.8342919145313,180.41348163784463L564.6329240560532,180.78239508663316L568.6260847636631,182.62980406498357L570.2233490467072,183.3699990745671L571.8206133297512,184.11089811744986L572.2199294005121,184.29621248240858L572.6192454712731,184.48159085039458L573.4178776127952,184.85244999121002L574.6158258250781,185.40900751514744L575.8137740373612,185.96593625664264L576.6124061788831,186.33740982651923L577.8103543911661,186.8949017946538L580.2062508157321,188.01082017512007L581.0048829572542,188.3831001831394L581.8035150987761,188.75548259600222L582.2028311695371,188.94171860455268L583.4007793818201,189.50063143989112L583.8000954525811,189.68700825510146L584.1994115233421,189.87339787091716L585.3973597356252,190.43277152805146L588.5918883017132,191.9257189411554L590.5884686555181,192.85968951589368L591.3871007970401,193.23344159353866L593.782997221606,194.35528665432378L595.3802615046501,195.10364845017818L595.779577575411,195.29078050110945L596.1788936461721,195.47793815325164L596.5782097169331,195.66512140660464L597.3768418584551,196.03952631512706L598.9741061414991,196.7885921442807L599.7727382830211,197.16321466309557L600.1720543537822,197.35056432431932L602.967266849109,198.66239597104894L603.7658989906312,199.03735130560526L604.963847202914,199.59987391167786L605.3631632736751,199.78738998077233L606.5611114859581,200.35005339350477L606.9604275567191,200.53763346562647L608.957007910524,201.47564903168387L609.3563239812852,201.6632931068328L609.7556400520461,201.8509499825871L610.953588264329,202.41390780924468L611.7522204058511,202.78924716196423L612.151536476612,202.97694243953487L612.5508525473731,203.1646249165001L612.9501686181342,203.35230739346528L613.3494846888951,203.5400154716414L613.7488007596561,203.72772354981748L616.1446971842221,204.85406162311216L618.5405936087882,205.98045089882856L618.9399096795491,206.16819737882096L620.9364900333541,207.1068785763613L622.5337543163981,207.85780049330376L623.33238645792,208.23322945026135L625.3289668117251,209.17176984114184L626.926231094769,209.9224997490027L629.721443590096,211.2359826738341L630.5200757316181,211.61118121989375L631.718023943901,212.17389583504797L632.516656085423,212.54899197626415L632.915972156184,212.73652084596407L634.1139203684671,213.29905625264212L634.5132364392281,213.48652111931486L635.31186858075,213.86143805205487L635.7111846515111,214.0488773175167L636.9091328637941,214.61109270905874L643.6975060667311,217.79405285601953L644.096822137492,217.98112090392362L644.496138208253,218.16815055001138L644.895454279014,218.35515459488826L646.492718562058,219.10295316410327L647.690666774341,219.66355567935983L649.2879310573851,220.41068861709198L649.687247128146,220.59739824804373L650.086563198907,220.7840822777846L651.683827481951,221.53054958403388L652.083143552712,221.71709280711488L652.482459623473,221.90361042898502L653.281091764995,222.27658166969812L654.079723906517,222.64939930314597L654.8783560480391,223.02210173114477L655.676988189561,223.39467615308922L658.871516755649,224.88369378032303L660.8680971094541,225.81318414315723L661.267413180215,225.99898493112272L664.861257817064,227.66939993805053L665.260573887825,227.85480390724737L669.653050666196,229.89153384005937L671.25031494924,230.63085840847293L671.649631020001,230.815571144976L672.8475792322839,231.36945334237637L673.246895303045,231.55398687040332L674.444843515328,232.1072930405589L675.24347565685,232.47592487602773L675.642791727611,232.66016399012955L676.0421077983721,232.84436470241502L678.8373202936989,234.132310419393L679.2366363644601,234.31608871169894L679.635952435221,234.4998158015831L680.035268505982,234.68350448965097L681.233216718265,235.23421213690222L682.0318488597869,235.6011030900312L682.431164930548,235.78445896235758L682.8304810013091,235.96775083165676L686.025009567397,237.4321208931153L688.0215899212019,238.34547609279207L688.4209059919631,238.52796792425121L689.618854204246,239.075072201071L692.414066699573,240.34949407840142L693.212698841095,240.71303767320777L697.2058595487049,242.52688346409377L699.2024399025099,243.43127183965962L699.6017559732709,243.611952385449L700.400388114793,243.9730766658271L700.799704185554,244.15353960132404L703.1956006101199,245.23481314316624L703.594916680881,245.41477685505095L705.9908131054469,246.4929846518902L706.3901291762079,246.6724235389519L709.983973813057,248.28391735903813L711.581238096101,248.99812713957792L712.3798702376229,249.35473920653834L713.9771345206669,250.0670096953539L717.5709791575159,251.66480686761906L718.3696112990378,252.01893561712407L719.567559511321,252.54950151171505L720.3661916528429,252.90278542126103L720.765507723604,253.0792929696769L722.3627720066479,253.78444632186768L722.762088077409,253.96050584909312L723.9600362896919,254.4881788068546L725.9566166434969,255.36582031735296L726.7552487850189,255.7162368912803L728.352513068063,256.41594358585627L729.1511452095849,256.7652401068076L729.5504612803459,256.93974436047205L729.9497773511068,257.1141654102011L730.748409492629,257.46270669543145L731.5470416341509,257.8108639624986L733.5436219879558,258.67955144949156L734.7415702002389,259.19961444731877L735.5402023417608,259.5458132217536L736.7381505540438,260.0643657481388L737.936098766327,260.58202223214323L739.5333630493709,261.2708036099759L740.7313112616539,261.78631599256914L742.3285755446979,262.4722044335723L742.7278916154588,262.64340613103315L743.1272076862199,262.81451182395324L745.922420181547,264.00927553362885L746.7210523230689,264.3496692334965L747.12036839383,264.5196996755596L747.5196844645909,264.68962131247645L748.7176326768738,265.1987397926522L749.116948747635,265.368226208984L751.5128451722009,266.38284059799605L751.9121612429618,266.55153337679064L752.3114773137229,266.7201365513471L753.5094255260059,267.22522924111195L755.10668980905,267.8971010191581L756.3046380213328,268.3997935954028L756.7039540920939,268.567123109718L757.1032701628549,268.73435021918965L757.5025862336158,268.90143652200146L758.301218375138,269.2352955127918L759.4991665874209,269.7351783561425L760.6971147997039,270.2339987492416L762.2943790827479,270.89744772890793L762.6936951535089,271.062997959067L764.6902755073139,271.8889506247976L765.4889076488358,272.21847021034364L765.8882237195969,272.3830539947919L766.2875397903579,272.54750977318577L769.8813844272069,274.02197951233666L771.4786487102508,274.6740423534639L771.8779647810119,274.836731648307L772.2772808517728,274.9992929370957L772.6765969225338,275.1617326201327L773.475229064056,275.48621516743805L775.4718094178609,276.29516222884126L775.8711254886218,276.45655866253486L776.6697576301439,276.7789547111535L777.0690737009048,276.93995432607846L777.4683897716659,277.100825934949L778.6663379839488,277.5826407237207L779.4649701254709,277.9031870848532L779.8642861962319,278.06325865588377L780.2636022669928,278.2231958205572L783.8574469038418,279.6565756162448L785.0553951161248,280.131906898361L788.6492397529739,281.55040599022436L791.0451361775398,282.4897848207612L791.4444522483008,282.645849802289L793.8403486728668,283.5792059479661L794.2396647436278,283.7342660819668L794.6389808143889,283.88918540930763L795.4376129559108,284.19856964249624L796.2362450974329,284.5073714481372L797.8335093804768,285.12323417707944L800.2294058050428,286.04261846191855L800.6287218758039,286.1953232845182L803.8232504418919,287.411579210728L804.2225665126529,287.5629335694538L805.4205147249357,288.01608140234197L806.6184629372187,288.46785317014536L808.2157272202628,289.0680671589368L809.0143593617847,289.36724290928674L810.6116236448288,289.9637639234087L813.0075200693948,290.8538092205787L814.6047843524387,291.44401313591595L815.0041004231998,291.5911656959059L816.2020486354828,292.03167933122455L817.0006807770048,292.3245475832438L818.1986289892877,292.7626451042856L819.7958932723318,293.34454142669205L820.5945254138537,293.63450394127636L821.3931575553758,293.9238072246805L821.7924736261367,294.0682172549549L822.1917896968978,294.2124576772072L824.9870021922248,295.2175580162257L825.7856343337468,295.5032355281389L826.1849504045077,295.64582467228945L828.5808468290738,296.49787137221L828.9801628998348,296.63928286066L829.3794789705958,296.78052794123926L830.1781111121178,297.0625156786343L830.9767432536398,297.3438281840924L835.7685361027718,299.0173025357204L839.3623807396207,300.25609712795915L840.9596450226647,300.8021037528625L842.9562253764697,301.4806382460402L843.3555414472308,301.6158222399435L845.3521218010358,302.2890156805013L845.7514378717967,302.42311482309356L846.1507539425577,302.5570443576637L847.7480182256018,303.09095761057733L848.1473342963627,303.22397830216124L850.5432307209287,304.01829747169757L851.3418628624507,304.2816091257552L852.1404950039727,304.5441911453028L852.5398110747337,304.6752117422867L852.9391271454948,304.8060435303403L853.7377592870167,305.06715028011087L854.1370753577777,305.19743484228195L856.1336557115827,305.8460575206971L857.3316039238657,306.2330166230051L858.1302360653876,306.49005278024566L859.3281842776707,306.8741861489027L860.5261324899537,307.25663303779294L861.7240807022367,307.63739024676505L862.5227128437588,307.8902726075403L864.9186092683248,308.64437227478334L865.3179253390857,308.7693893878157L866.1165574806078,309.0188475866356L866.9151896221297,309.2675601501887L870.5090342589788,310.3771134295998L870.9083503297397,310.4994328150356L871.3076664005007,310.62154739078443L871.7069824712618,310.7434763577544L877.2974074619158,312.42986332012026L878.8946717449596,312.90457057272124L880.4919360280037,313.3760904745676L880.8912520987647,313.49347202645487L882.0892003110476,313.84441022505393L882.4885163818086,313.9609949392525L883.6864645940917,314.3095234238774L884.4850967356136,314.54086876599933L885.2837288771357,314.7714012696759L887.2803092309407,315.3442059620684L888.4782574432236,315.685434901441L889.2768895847457,315.91190641304155L889.6762056555067,316.0248301540842L890.4748377970286,316.2500696074112L891.6727860093116,316.586376713992L892.8707342215947,316.92083893331375L893.6693663631166,317.1427790305885L894.8673145753997,317.4741371030909L896.0652627876826,317.8036502883343L896.4645788584437,317.9130602631837L897.6625270707266,318.2400517291553L898.8604752830097,318.5651583059759L902.0550038490977,319.42285967334976L902.4543199198587,319.5291318997905L903.2529520613806,319.74101872156757L905.2495324151856,320.2670436013786L907.2461127689907,320.7877690305374L907.6454288397517,320.89127152597604L908.0447449105127,320.9945532109708L908.8433770520346,321.20048455106684L909.2426931227956,321.3031278058653L910.0413252643177,321.5077646847361L910.8399574058396,321.7115503233452L912.0379056181226,322.0156031043679L912.4372216888836,322.11651667735623L914.0344859719277,322.5180332682012L916.0310663257326,323.01504877593317L916.8296984672546,323.2123301069029L919.2255948918207,323.79890505059774L919.6249109625817,323.89590323839707L920.0242270333426,323.99268061575253L920.4235431041036,324.0892435829669L920.8228591748647,324.18557773935896L922.0208073871476,324.47326974655334L922.8194395286697,324.66395556557L924.0173877409526,324.9483306158796L924.4167038117135,325.0426822785042L925.6146520239967,325.3244172039417L926.4132841655187,325.511114034288L927.2119163070406,325.6969260227833L927.6112323778016,325.78949200094894L928.0105484485625,325.881835568595L929.6078127316066,326.24899373436256L931.2050770146506,326.61255653007703L931.6043930854116,326.702885602442L932.0037091561726,326.7929938643631L933.6009734392165,327.1511644050359L934.0002895099776,327.24014141345117L934.7989216514997,327.4174425994043L935.1982377222606,327.50573957565564L935.9968698637826,327.6816630964483L936.3961859345436,327.7692800405356L936.7955020053046,327.85667617417903L937.5941341468266,328.0307820089991L937.9934502175877,328.1174981104785L938.7920823591096,328.2902422808949L939.9900305713926,328.54763845516356L940.7886627129146,328.7181057178873L941.1879787836756,328.8029881326374L943.5838752082417,329.30750799530875L943.9831912790027,329.3908079352113L944.3825073497636,329.4738614634591L945.9797716328076,329.8037698673955L946.7784037743296,329.9673392038626L947.5770359158516,330.12999009688934L949.1743001988956,330.4525085512975L951.9695126942225,331.0079764236968L953.1674609065057,331.2425491184654L953.9660930480276,331.3977788604882L954.7647251895496,331.5520573575192L955.1640412603106,331.62884498940394L956.7613055433546,331.9336594064504L957.5599376848766,332.08465294811026L957.9592537556375,332.1598021024987L958.3585698263985,332.23471284561083L959.5565180386816,332.4580378083866L959.9558341094425,332.53200690696104L961.1537823217255,332.75250453601024L961.5530983924865,332.825531990047L962.7510466047696,333.04319508502897L963.9489948170525,333.2587364796592L965.5462591000966,333.54279151483286L967.9421555246627,333.96174173024957L968.3414715954236,334.03072979323207L969.5394198077065,334.23627711516485L969.9387358784676,334.3043147331934L970.7373680199896,334.4396691351567L971.5360001615115,334.5740658918254L971.9353162322726,334.6409074532831L972.7339483737945,334.7738777424831L973.1332644445555,334.83999846984693L973.9318965860776,334.97151909048085L974.3312126568386,335.03691898375087L974.7305287275996,335.102073265404L975.1298447983605,335.16699793619705L975.9284769398826,335.2961096428946L976.7271090814045,335.4242637042977L977.1264251521656,335.48797551772526L978.7236894352095,335.74041545757495L979.1230055059705,335.80292401409116L979.9216376474926,335.92721069257556L981.1195858597755,336.1118258244622L981.9182180012975,336.233695588632L983.1161662135806,336.4146817488762L985.5120626381465,336.7700681578657L987.9079590627125,337.11668775220437L989.5052233457566,337.34287965057985L990.7031715580396,337.5099551528808L992.6997519118446,337.7835232920475L993.4983840533665,337.8912287862787L994.6963322656495,338.05094754062185L997.0922286902155,338.36372473428986L997.4915447609765,338.41499275915385L998.2901769024986,338.5167911739932L999.4881251147815,338.6676295083122L1000.6860733270645,338.816247737625L1001.0853893978255,338.86528725708564L1001.4847054685865,338.91408916530776L1005.0785501054355,339.34210860967886L1005.4778661761965,339.38842040012395L1005.8771822469575,339.4344861789332L1006.2764983177185,339.48030594610657L1007.0751304592404,339.57120064522445L1007.8737626007626,339.66109569706117L1009.0717108130455,339.79406638628006L1011.0682911668505,340.01070583284576L1011.8669233083725,340.09561984909055L1012.2662393791335,340.1376958391916L1012.6655554498944,340.17952621767586L1013.0648715206554,340.22110258414585L1016.2594000867434,340.54472669084885L1019.8532447235925,340.88961800344356L1021.8498250773974,341.0724392504834L1025.0443536434855,341.35184886593896L1025.4436697142464,341.38564246430127L1026.6416179265295,341.4854993873124L1028.2388822095734,341.6151193180479L1029.4368304218565,341.7096757903594L1030.2354625633784,341.7714465119777L1031.0340947049006,341.83221758631487L1032.2320429171834,341.92145720715115L878.8946717449596,312.90457057272124L879.2939878157207,313.0227457621458L879.6933038864818,313.1407321426401L880.4919360280037,313.3760904745676L883.6864645940917,314.3095234238774L884.4850967356136,314.54086876599933L885.2837288771357,314.7714012696759L886.0823610186577,315.0011241350583L888.0789413724626,315.5718967313372L890.0755217262677,316.1375490854399L891.6727860093116,316.586376713992L893.2700502923557,317.03191138679466L893.6693663631166,317.1427790305885L894.0686824338776,317.2534418646953L895.6659467169217,317.6940035022844L896.8638949292047,318.02226382827024L898.0618431414878,318.348624864424L901.2563717075757,319.20970239148267L902.0550038490977,319.42285967334976L903.6522681321416,319.84665251781206L904.0515842029027,319.95207190391534L904.4509002736637,320.05727847995325L904.8502163444247,320.1622642455473L905.6488484859467,320.37162774797696L906.4474806274686,320.58012400938804L907.6454288397517,320.89127152597604L908.8433770520346,321.20048455106684L909.2426931227956,321.3031278058653L910.0413252643177,321.5077646847361L910.8399574058396,321.7115503233452L913.6351699011667,322.4179805359286L915.2324341842107,322.81690020394484L916.0310663257326,323.01504877593317L916.8296984672546,323.2123301069029L917.6283306087767,323.4087265960216L918.0276466795376,323.50660162529357L918.8262788210595,323.701694052733L920.0242270333426,323.99268061575253L920.8228591748647,324.18557773935896L922.0208073871476,324.47326974655334L922.8194395286697,324.66395556557L924.0173877409526,324.9483306158796L924.4167038117135,325.0426822785042L924.8160198824746,325.1368291314417L928.8091805900847,326.0658618726314L929.2084966608456,326.1575350085675L930.0071288023676,326.34021724903266L930.4064448731286,326.43121835318317L930.8057609438896,326.52200504719264L931.2050770146506,326.61255653007703L932.4030252269337,326.8828717153863L932.8023412976946,326.97253035604126L933.6009734392165,327.1511644050359L934.7989216514997,327.4174425994043L935.5975537930216,327.59381574146306L936.3961859345436,327.7692800405356L937.1948180760655,327.94384349700016L940.7886627129146,328.7181057178873L941.1879787836756,328.8029881326374L942.3859269959586,329.0562801127867L943.1845591374805,329.22399364526507L943.9831912790027,329.3908079352113L944.7818234205246,329.55667818050625L945.5804555620466,329.7216331825123L945.9797716328076,329.8037698673955L947.1777198450907,330.04877985582493L949.5736162696567,330.53255633738036L949.9729323404176,330.61237451260314L951.5701966234616,330.9293215034934L952.7681448357446,331.1645902311828L953.9660930480276,331.3977788604882L954.7647251895496,331.5520573575192L955.1640412603106,331.62884498940394L956.7613055433546,331.9336594064504L958.3585698263985,332.23471284561083L959.5565180386816,332.4580378083866L959.9558341094425,332.53200690696104L960.3551501802035,332.6057463946754L960.7544662509646,332.6792402707729L961.9524144632476,332.8983210328074L963.5496787462915,333.18713549309126L964.3483108878136,333.33010865540496L965.9455751708575,333.6132132456247L966.3448912416186,333.683397365178L967.1435233831405,333.82304477019073L967.5428394539015,333.8925080556502L969.5394198077065,334.23627711516485L970.7373680199896,334.4396691351567L971.1366840907506,334.50698591909133L971.9353162322726,334.6409074532831L972.7339483737945,334.7738777424831L973.5325805153165,334.90587358559395L973.9318965860776,334.97151909048085L975.1298447983605,335.16699793619705L975.5291608691216,335.2316681949569L976.3277930106435,335.36030547921536L977.5257412229266,335.5514505199522L977.9250572936876,335.6146791105244L978.7236894352095,335.74041545757495L981.1195858597755,336.1118258244622L982.3175340720585,336.2942624533104L983.5154822843416,336.4745189790446L983.9147983551026,336.53411859797444L985.5120626381465,336.7700681578657L987.9079590627125,337.11668775220437L990.7031715580396,337.5099551528808L993.0990679826056,337.83750304517025L994.6963322656495,338.05094754062185L995.4949644071716,338.1561953186084L997.4915447609765,338.41499275915385L998.2901769024986,338.5167911739932L998.6894929732596,338.56732196398764L999.4881251147815,338.6676295083122L1001.0853893978255,338.86528725708564L1003.0819697516305,339.10680708043805L1004.6792340346746,339.29554320723855L1006.2764983177185,339.48030594610657L1007.4744465300015,339.6162667767526L1009.8703429545675,339.8814709203208L1010.2696590253286,339.9248005697172L1011.0682911668505,340.01070583284576L1013.4641875914166,340.2624333389989L1015.0614518744604,340.4252488398113L1017.4573482990265,340.66195143531945L1017.8566643697875,340.70052125958665L1018.2559804405485,340.73884527222754L1019.4539286528316,340.8523016384622L1019.8532447235925,340.88961800344356L1021.8498250773974,341.0724392504834L1022.6484572189195,341.1438030258318L1024.2457215019635,341.28350783355955L1024.6450375727245,341.3178012555624L1025.0443536434855,341.35184886593896L1025.4436697142464,341.38564246430127L1025.8429857850074,341.41918205064934L1026.2423018557683,341.4524676249833L1026.6416179265295,341.4854993873124L1027.4402500680515,341.5508172767038L1029.8361464926174,341.7406840569817L1031.0340947049006,341.83221758631487L1033.4299911294665,342.00842762065895L1035.0272554125104,342.1208272369117L1038.6211000493595,342.358897997131L1039.0204161201204,342.38408138824957L1039.4197321908814,342.40901086735875L1039.8190482616426,342.4336863344536L1041.8156286154474,342.55324598936033L1042.6142607569695,342.5992872670107L1044.6108411107743,342.7099336003371L1045.8087893230575,342.7732689959609L1046.6074214645794,342.8142144825917L1047.0067375353403,342.8343022326978L1047.4060536061015,342.8541441711775L1047.8053696768625,342.87372399725984L1049.4026339599066,342.94949538107835L1052.5971625259945,343.0887987198176L1052.9964785967554,343.1050606389703L1054.1944268090383,343.1523143239649L1054.9930589505605,343.18254425377353L1055.3923750213214,343.19727415046503L1056.1910071628433,343.2259638824258L1058.1875875166484,343.29322338865137L1060.1841678704534,343.35408461725257L1060.9828000119755,343.3766300836032L1061.7814321534975,343.3981596769052L1062.9793803657803,343.4285370386871L1063.7780125073025,343.44750242320777L1065.7745928611073,343.4904387289999L1066.9725410733904,343.51312344568674L1068.1704892856735,343.5335061034913L1071.7643339225224,343.5808171411985L1072.1636499932833,343.5847904478771L1073.3615982055665,343.595170202879L1074.5595464178493,343.60324789665475L1075.3581785593713,343.60735228258L1075.7574946301324,343.60902352959505L1077.7540749839375,343.6135047652536" fill="none"></path></g></g></g></g></g></g><g transform="translate(61, 377)" clip-path="url(#clip_1)"><clipPath id="clip_1"><rect width="1118" height="22"></rect></clipPath><g><g><line x1="0" y1="0" x2="0" y2="5" style="visibility: inherit;" fill="rgb(0, 0, 0)" stroke="rgb(204, 204, 204)" stroke-width="1px"></line><line x1="79.86321415219987" y1="0" x2="79.86321415219987" y2="5" style="visibility: inherit;" fill="rgb(0, 0, 0)" stroke="rgb(204, 204, 204)" stroke-width="1px"></line><line x1="159.72642830439975" y1="0" x2="159.72642830439975" y2="5" style="visibility: inherit;" fill="rgb(0, 0, 0)" stroke="rgb(204, 204, 204)" stroke-width="1px"></line><line x1="239.58964245659962" y1="0" x2="239.58964245659962" y2="5" style="visibility: inherit;" fill="rgb(0, 0, 0)" stroke="rgb(204, 204, 204)" stroke-width="1px"></line><line x1="319.4528566087995" y1="0" x2="319.4528566087995" y2="5" style="visibility: inherit;" fill="rgb(0, 0, 0)" stroke="rgb(204, 204, 204)" stroke-width="1px"></line><line x1="399.3160707609994" y1="0" x2="399.3160707609994" y2="5" style="visibility: inherit;" fill="rgb(0, 0, 0)" stroke="rgb(204, 204, 204)" stroke-width="1px"></line><line x1="479.17928491319924" y1="0" x2="479.17928491319924" y2="5" style="visibility: inherit;" fill="rgb(0, 0, 0)" stroke="rgb(204, 204, 204)" stroke-width="1px"></line><line x1="559.0424990653992" y1="0" x2="559.0424990653992" y2="5" style="visibility: inherit;" fill="rgb(0, 0, 0)" stroke="rgb(204, 204, 204)" stroke-width="1px"></line><line x1="638.905713217599" y1="0" x2="638.905713217599" y2="5" style="visibility: inherit;" fill="rgb(0, 0, 0)" stroke="rgb(204, 204, 204)" stroke-width="1px"></line><line x1="718.768927369799" y1="0" x2="718.768927369799" y2="5" style="visibility: inherit;" fill="rgb(0, 0, 0)" stroke="rgb(204, 204, 204)" stroke-width="1px"></line><line x1="798.6321415219988" y1="0" x2="798.6321415219988" y2="5" style="visibility: inherit;" fill="rgb(0, 0, 0)" stroke="rgb(204, 204, 204)" stroke-width="1px"></line><line x1="878.4953556741987" y1="0" x2="878.4953556741987" y2="5" style="visibility: inherit;" fill="rgb(0, 0, 0)" stroke="rgb(204, 204, 204)" stroke-width="1px"></line><line x1="958.3585698263985" y1="0" x2="958.3585698263985" y2="5" style="visibility: inherit;" fill="rgb(0, 0, 0)" stroke="rgb(204, 204, 204)" stroke-width="1px"></line><line x1="1038.2217839785985" y1="0" x2="1038.2217839785985" y2="5" style="visibility: inherit;" fill="rgb(0, 0, 0)" stroke="rgb(204, 204, 204)" stroke-width="1px"></line><line x1="1118.0849981307983" y1="0" x2="1118.0849981307983" y2="5" style="visibility: inherit;" fill="rgb(0, 0, 0)" stroke="rgb(204, 204, 204)" stroke-width="1px"></line></g><g transform="translate(0, 8)"><text style="text-anchor: middle; visibility: hidden; font-family: Roboto, sans-serif; font-size: 12px; font-weight: 200;" x="0" y="0" dx="0em" dy="0.95em" fill="rgb(50, 49, 63)" stroke="none" stroke-width="1px">-200</text><text style="text-anchor: middle; visibility: inherit; font-family: Roboto, sans-serif; font-size: 12px; font-weight: 200;" x="79.86321415219987" y="0" dx="0em" dy="0.95em" fill="rgb(50, 49, 63)" stroke="none" stroke-width="1px">0</text><text style="text-anchor: middle; visibility: inherit; font-family: Roboto, sans-serif; font-size: 12px; font-weight: 200;" x="159.72642830439975" y="0" dx="0em" dy="0.95em" fill="rgb(50, 49, 63)" stroke="none" stroke-width="1px">200</text><text style="text-anchor: middle; visibility: inherit; font-family: Roboto, sans-serif; font-size: 12px; font-weight: 200;" x="239.58964245659962" y="0" dx="0em" dy="0.95em" fill="rgb(50, 49, 63)" stroke="none" stroke-width="1px">400</text><text style="text-anchor: middle; visibility: inherit; font-family: Roboto, sans-serif; font-size: 12px; font-weight: 200;" x="319.4528566087995" y="0" dx="0em" dy="0.95em" fill="rgb(50, 49, 63)" stroke="none" stroke-width="1px">600</text><text style="text-anchor: middle; visibility: inherit; font-family: Roboto, sans-serif; font-size: 12px; font-weight: 200;" x="399.3160707609994" y="0" dx="0em" dy="0.95em" fill="rgb(50, 49, 63)" stroke="none" stroke-width="1px">800</text><text style="text-anchor: middle; visibility: inherit; font-family: Roboto, sans-serif; font-size: 12px; font-weight: 200;" x="479.17928491319924" y="0" dx="0em" dy="0.95em" fill="rgb(50, 49, 63)" stroke="none" stroke-width="1px">1k</text><text style="text-anchor: middle; visibility: inherit; font-family: Roboto, sans-serif; font-size: 12px; font-weight: 200;" x="559.0424990653992" y="0" dx="0em" dy="0.95em" fill="rgb(50, 49, 63)" stroke="none" stroke-width="1px">1.2k</text><text style="text-anchor: middle; visibility: inherit; font-family: Roboto, sans-serif; font-size: 12px; font-weight: 200;" x="638.905713217599" y="0" dx="0em" dy="0.95em" fill="rgb(50, 49, 63)" stroke="none" stroke-width="1px">1.4k</text><text style="text-anchor: middle; visibility: inherit; font-family: Roboto, sans-serif; font-size: 12px; font-weight: 200;" x="718.768927369799" y="0" dx="0em" dy="0.95em" fill="rgb(50, 49, 63)" stroke="none" stroke-width="1px">1.6k</text><text style="text-anchor: middle; visibility: inherit; font-family: Roboto, sans-serif; font-size: 12px; font-weight: 200;" x="798.6321415219988" y="0" dx="0em" dy="0.95em" fill="rgb(50, 49, 63)" stroke="none" stroke-width="1px">1.8k</text><text style="text-anchor: middle; visibility: inherit; font-family: Roboto, sans-serif; font-size: 12px; font-weight: 200;" x="878.4953556741987" y="0" dx="0em" dy="0.95em" fill="rgb(50, 49, 63)" stroke="none" stroke-width="1px">2k</text><text style="text-anchor: middle; visibility: inherit; font-family: Roboto, sans-serif; font-size: 12px; font-weight: 200;" x="958.3585698263985" y="0" dx="0em" dy="0.95em" fill="rgb(50, 49, 63)" stroke="none" stroke-width="1px">2.2k</text><text style="text-anchor: middle; visibility: inherit; font-family: Roboto, sans-serif; font-size: 12px; font-weight: 200;" x="1038.2217839785985" y="0" dx="0em" dy="0.95em" fill="rgb(50, 49, 63)" stroke="none" stroke-width="1px">2.4k</text><text style="text-anchor: middle; visibility: hidden; font-family: Roboto, sans-serif; font-size: 12px; font-weight: 200;" x="1118.0849981307983" y="0" dx="0em" dy="0.95em" fill="rgb(50, 49, 63)" stroke="none" stroke-width="1px">2.6k</text></g><line x1="0" y1="0" x2="1118.0849981307983" y2="0" fill="rgb(0, 0, 0)" stroke="rgb(204, 204, 204)" stroke-width="1px"></line></g></g></g></g></svg>